<?xml version="1.0" standalone="no"?>
<!DOCTYPE svg PUBLIC "-//W3C//DTD SVG 20010904//EN"
 "http://www.w3.org/TR/2001/REC-SVG-20010904/DTD/svg10.dtd">
<svg version="1.0" xmlns="http://www.w3.org/2000/svg"
 width="411.000000pt" height="411.000000pt" viewBox="0 0 411.000000 411.000000"
 preserveAspectRatio="xMidYMid meet">
<metadata>
Created by potrace 1.11, written by Peter Selinger 2001-2013
</metadata>
<g transform="translate(0.000000,411.000000) scale(0.100000,-0.100000)"
fill="#000000" stroke="none">
<path d="M1485 4090 c-16 -10 -53 -45 -81 -76 l-50 -56 -120 -9 c-65 -4 -155
-15 -199 -24 -95 -18 -248 -75 -295 -110 -45 -33 -116 -136 -134 -194 -18 -60
-41 -190 -34 -197 3 -3 16 28 28 68 29 97 50 135 100 183 l42 40 -37 -67 c-37
-68 -65 -152 -65 -197 0 -37 15 -13 29 44 17 70 43 125 97 205 43 64 94 113
94 91 0 -6 29 4 64 20 35 16 81 32 102 36 l39 5 -40 -27 c-22 -15 -62 -49 -90
-75 -27 -26 -82 -73 -122 -104 -48 -39 -79 -72 -93 -102 -30 -61 -21 -74 16
-22 17 24 72 78 122 121 85 72 91 75 75 42 -9 -19 -20 -35 -25 -35 -4 0 -8 -7
-8 -16 0 -8 -4 -13 -9 -10 -5 3 -17 -7 -27 -22 -31 -45 -162 -170 -193 -183
-49 -22 -120 -161 -121 -238 -1 -14 -7 -37 -15 -51 -13 -23 -14 -21 -8 30 3
30 14 75 24 99 24 56 24 69 -1 46 -30 -27 -51 -105 -50 -187 1 -40 -5 -115
-11 -165 -10 -72 -10 -96 -1 -105 9 -9 12 -8 12 5 0 24 21 119 26 115 2 -3 0
-29 -5 -59 -11 -66 -2 -129 15 -108 6 8 17 37 23 64 7 28 18 61 26 75 14 25
14 25 15 -13 0 -38 -27 -102 -74 -169 -30 -45 -20 -49 23 -9 42 39 41 16 -3
-76 -23 -48 -44 -77 -63 -87 -25 -13 -25 -15 -7 -16 12 0 37 11 57 24 28 19
35 21 30 8 -3 -9 -10 -23 -16 -29 -6 -9 -6 -13 2 -13 7 0 20 19 31 43 25 57
25 41 -1 -28 -11 -30 -29 -60 -40 -66 -11 -5 -17 -14 -14 -20 11 -16 22 -10
44 24 11 17 21 28 21 24 0 -14 -32 -71 -53 -94 -21 -24 -11 -33 12 -10 10 10
11 9 6 -5 -5 -12 -2 -18 8 -18 15 0 34 -45 27 -65 -4 -11 -5 -22 -15 -218 -5
-89 -4 -145 2 -160 31 -67 126 -265 136 -282 6 -11 13 -62 15 -112 2 -51 8
-93 12 -93 5 0 10 7 12 15 5 28 115 -87 129 -136 13 -41 13 -42 -19 -69 -37
-31 -42 -46 -9 -29 38 20 67 52 87 96 13 29 25 43 38 43 33 0 14 -47 -34 -88
-24 -20 -44 -40 -44 -44 0 -14 45 -9 68 8 27 19 36 14 27 -15 -4 -13 -26 -30
-56 -42 -27 -12 -49 -25 -49 -30 0 -13 -34 -11 -48 3 -9 9 -12 9 -12 0 0 -6
11 -19 25 -28 25 -16 33 -15 99 12 17 6 17 4 -4 -24 -20 -27 -22 -39 -17 -98
3 -37 10 -70 18 -74 22 -14 5 -250 -26 -347 -25 -81 -30 -147 -13 -170 6 -7 3
-24 -7 -43 -9 -18 -14 -34 -12 -37 3 -2 11 5 17 17 l12 22 19 -28 c10 -16 19
-33 19 -39 -1 -5 -7 1 -16 15 l-15 25 7 -25 c11 -41 34 -81 44 -75 5 3 12 0
16 -6 5 -8 3 -9 -6 -4 -8 5 -11 3 -8 -6 3 -8 10 -13 16 -12 5 1 16 -5 24 -15
12 -15 11 -16 -4 -3 -10 7 -18 9 -18 3 0 -13 25 -33 33 -27 4 3 5 2 2 -1 -2
-4 14 -27 36 -53 23 -25 57 -74 78 -108 27 -47 42 -63 58 -63 21 0 20 3 -16
58 -210 314 -253 393 -253 466 0 24 5 52 10 62 25 49 55 178 62 264 6 90 7 93
19 63 7 -18 17 -33 23 -33 6 0 8 7 4 15 -3 8 -2 15 3 15 5 0 11 -26 13 -57 3
-32 9 -66 13 -77 7 -16 6 -17 -13 -7 -14 7 -22 8 -22 2 0 -6 13 -17 29 -26 16
-8 39 -31 52 -51 20 -33 21 -37 6 -46 -27 -15 -20 -47 16 -67 17 -11 35 -23
39 -28 83 -96 99 -128 69 -137 -9 -2 9 -5 39 -5 30 -1 71 -3 90 -4 30 -2 36 2
38 21 3 22 4 22 33 5 16 -10 29 -20 29 -24 0 -15 -61 -58 -97 -69 -43 -14 -65
-30 -42 -30 37 0 111 34 134 62 18 21 30 28 45 23 11 -3 20 -10 20 -15 0 -5
11 -22 25 -38 l25 -30 -25 -20 c-14 -12 -56 -25 -95 -32 -39 -7 -70 -14 -70
-17 0 -3 31 -3 70 -1 55 4 77 11 104 31 32 25 34 25 50 8 13 -14 13 -20 3 -33
-16 -22 -78 -58 -98 -58 -8 0 -24 -7 -35 -15 -17 -13 -16 -14 21 -8 50 7 91
28 122 61 23 25 24 25 60 8 l36 -17 -28 -30 c-36 -36 -21 -39 17 -2 l27 26 58
-38 57 -38 -27 -23 c-15 -13 -44 -26 -65 -29 -77 -13 -90 -25 -24 -22 45 2 70
9 92 26 l30 22 24 -28 24 -28 -36 -7 c-20 -3 -50 -4 -67 -1 -23 4 -27 2 -15
-6 8 -6 46 -11 83 -11 51 0 69 -4 73 -15 5 -11 21 -15 60 -15 l53 0 -24 46
c-30 57 -31 64 -5 64 15 0 20 -7 20 -26 0 -14 9 -39 21 -55 20 -28 22 -29 112
-29 l91 0 -43 40 c-47 44 -46 51 4 20 72 -45 147 -60 280 -59 116 1 142 7 114
25 -6 3 -15 0 -20 -7 -10 -15 -12 -7 -9 32 1 18 -9 35 -35 57 -20 18 -40 32
-45 32 -5 0 -7 6 -4 14 3 8 -9 30 -26 50 -18 20 -29 36 -26 36 16 0 110 -98
128 -134 11 -22 32 -55 47 -73 23 -30 31 -33 76 -33 38 1 46 3 33 10 -9 6 -27
25 -39 43 l-23 32 25 -21 c49 -42 103 -65 146 -62 l42 3 -68 60 c-38 33 -73
69 -79 81 -10 21 -10 21 35 5 37 -13 56 -29 97 -84 l50 -67 96 0 95 1 -80 38
c-44 20 -100 50 -124 65 l-44 28 31 15 c30 15 32 14 73 -20 53 -46 169 -107
203 -107 14 0 26 -4 26 -10 0 -5 5 -10 10 -10 22 0 8 32 -22 50 -43 26 -14 26
35 0 20 -11 46 -20 58 -20 18 0 19 -2 9 -15 -11 -13 -8 -15 16 -15 43 1 78 60
70 115 -16 110 -22 141 -29 152 -4 7 0 13 10 16 16 4 15 6 -3 12 -12 4 -27 18
-33 32 -10 22 -9 25 4 20 8 -4 15 -3 15 2 0 4 -24 14 -53 22 l-53 15 28 -50
c32 -59 37 -129 12 -177 -19 -37 -14 -46 11 -19 10 11 20 42 23 72 4 39 7 48
13 33 16 -41 10 -93 -13 -115 -20 -19 -30 -21 -83 -15 -33 4 -73 9 -88 12
l-28 6 23 13 c28 16 34 19 73 30 26 8 30 15 33 51 3 45 -27 116 -72 171 -15
16 -26 32 -26 36 0 3 -54 59 -120 124 -88 87 -120 124 -120 142 0 19 -3 21 -9
11 -15 -23 -41 41 -41 101 0 31 -6 62 -15 75 -14 19 -13 21 11 27 21 6 36 -2
82 -41 30 -26 63 -61 71 -77 30 -54 87 -121 130 -150 34 -24 42 -35 38 -53 -4
-21 -3 -22 12 -9 14 13 19 13 35 0 44 -32 51 2 8 38 -16 14 -34 45 -44 78 -20
64 -60 130 -114 190 l-37 41 21 45 c12 24 22 57 22 72 0 38 -27 129 -50 169
-11 19 -15 35 -9 38 20 13 7 53 -36 105 -55 67 -79 79 -37 19 33 -49 65 -119
54 -119 -4 0 -20 24 -35 53 -28 53 -97 131 -97 110 0 -7 5 -15 10 -18 14 -9
52 -84 48 -96 -2 -5 -20 12 -41 40 -47 62 -79 91 -52 46 10 -16 24 -37 31 -45
15 -19 32 -81 27 -98 -7 -19 -23 -4 -23 21 0 30 -42 118 -65 137 -10 8 -16 11
-14 5 33 -70 44 -97 54 -137 28 -105 -26 -28 -75 105 -14 39 -34 24 -27 -22 7
-52 47 -131 71 -141 21 -9 21 -9 0 -9 -37 -2 -72 48 -88 128 -17 80 -10 107
25 98 10 -3 33 6 50 19 38 28 55 31 213 43 105 8 125 7 165 -9 27 -10 60 -15
79 -13 38 6 62 -10 55 -36 -3 -11 4 -28 16 -40 12 -12 19 -26 16 -30 -3 -5 24
-28 60 -50 36 -23 91 -64 122 -92 l56 -51 -44 7 c-57 10 -119 34 -119 48 0 6
-8 19 -17 30 -20 22 -9 18 39 -15 37 -26 42 -22 16 12 -12 17 -28 30 -35 30
-8 0 -37 15 -66 33 -29 18 -86 50 -129 71 -42 21 -85 47 -95 58 -15 17 -6 15
44 -11 69 -34 73 -36 73 -20 0 5 -30 24 -67 41 l-66 31 -21 -25 c-12 -14 -29
-24 -38 -23 -24 4 -23 -8 2 -30 12 -10 30 -34 41 -52 12 -19 24 -32 27 -29 3
3 -7 24 -23 47 l-27 42 29 -21 c17 -12 46 -39 66 -62 47 -51 51 -23 6 40 -35
49 -37 49 58 -8 77 -47 109 -74 75 -65 -37 9 -35 -18 5 -52 21 -19 35 -34 31
-35 -3 0 -30 20 -59 45 -29 25 -54 43 -57 41 -5 -6 25 -62 59 -113 16 -23 29
-48 29 -56 0 -28 42 -67 108 -102 89 -47 139 -89 158 -133 12 -29 17 -34 24
-22 18 28 10 56 -25 97 -19 22 -31 43 -27 47 3 4 -1 4 -9 1 -9 -3 -22 2 -30
11 -13 16 -12 16 6 7 28 -15 82 9 95 42 5 14 14 25 19 25 6 0 15 10 22 22 9
17 9 20 -2 15 -55 -22 -55 -22 -36 0 21 24 22 33 2 33 -8 0 -15 4 -15 9 0 5
-11 23 -25 39 l-25 30 30 6 c17 3 30 12 30 20 0 8 9 18 20 21 23 7 44 41 34
56 -4 6 -11 1 -18 -13 -10 -19 -21 -24 -71 -28 l-60 -6 35 -11 c19 -6 27 -12
18 -12 -34 -2 -129 41 -158 72 -16 17 -28 32 -26 34 1 1 39 -14 84 -33 68 -30
90 -34 123 -29 48 8 58 28 37 66 -11 18 -13 30 -6 37 6 6 7 16 2 24 -5 7 -16
37 -25 67 -16 58 -33 75 -42 41 -3 -11 -12 -20 -21 -20 -9 0 -16 -6 -16 -14 0
-10 -17 -17 -55 -21 -61 -8 -89 -3 -149 26 -22 10 -45 19 -52 19 -7 0 -14 9
-16 21 -2 15 -22 29 -75 51 -42 17 -73 36 -73 44 0 62 -67 164 -106 164 -15
-1 -14 -4 8 -15 49 -27 85 -111 68 -160 -5 -15 -8 -10 -13 21 -5 31 -19 53
-59 92 -29 29 -56 52 -60 52 -5 0 -8 6 -8 13 0 15 -78 57 -106 57 -16 0 -17
-2 -4 -10 13 -9 13 -10 0 -10 -13 0 -13 -1 0 -10 12 -8 12 -10 -5 -10 -16 0
-81 45 -123 85 -5 5 19 116 31 142 5 12 18 25 29 29 19 6 54 62 44 72 -3 3 -6
1 -6 -4 0 -5 -10 -20 -21 -34 -21 -25 -21 -25 -16 -2 4 18 3 21 -7 13 -10 -8
-27 6 -70 60 -31 39 -56 67 -56 63 0 -10 46 -72 83 -111 25 -27 28 -35 18 -47
-11 -13 -21 -6 -67 49 -31 36 -57 65 -60 65 -3 0 20 -32 51 -70 41 -51 54 -74
47 -86 -7 -12 -16 -7 -51 31 -24 26 -45 45 -47 43 -2 -2 17 -24 41 -48 42 -41
56 -72 37 -84 -4 -3 -30 13 -58 36 l-49 40 43 -41 c23 -23 40 -46 37 -52 -4
-5 1 -23 9 -41 9 -17 16 -34 16 -37 0 -16 113 -126 130 -127 21 -1 119 -66
147 -96 15 -17 15 -20 3 -28 -28 -18 -47 -11 -53 19 -4 17 -21 40 -41 56 -61
47 -200 46 -182 -1 3 -7 0 -17 -7 -21 -18 -11 -117 -26 -164 -25 -24 1 -43 -3
-43 -8 0 -6 38 -10 84 -10 79 0 111 -10 85 -25 -5 -4 -8 -13 -5 -21 4 -11 -5
-14 -37 -15 -23 -1 -48 -1 -56 0 -30 5 2 -17 43 -29 57 -16 96 -7 96 21 0 11
5 17 10 14 16 -10 12 -42 -6 -49 -28 -11 -68 -6 -141 15 -90 27 -98 49 -19 49
30 0 58 5 61 10 4 6 -27 10 -84 10 -87 0 -117 -10 -68 -24 21 -6 22 -7 3 -21
-11 -8 -34 -18 -53 -21 -48 -9 -29 -27 21 -20 37 5 39 5 22 -8 -10 -8 -53 -18
-97 -22 -51 -4 -84 -12 -96 -23 -10 -9 -32 -23 -50 -30 -25 -10 -35 -23 -48
-61 -11 -32 -31 -62 -60 -89 -25 -23 -46 -41 -49 -41 -2 0 14 35 35 78 39 79
59 152 41 152 -5 0 -12 -16 -15 -35 -3 -19 -24 -73 -46 -119 -23 -46 -41 -85
-41 -87 0 -2 32 -3 71 -3 69 2 72 3 113 43 34 34 49 41 81 41 21 0 36 3 33 6
-3 3 -25 5 -48 6 -33 0 -48 -6 -74 -31 -17 -17 -42 -31 -54 -31 l-21 0 24 36
c14 20 25 42 25 49 0 29 25 33 85 14 33 -10 80 -21 103 -25 l44 -7 -39 -18
-38 -18 60 5 c44 4 56 3 45 -5 -8 -6 -23 -11 -33 -11 -10 0 -20 -7 -23 -15 -7
-18 -32 -26 -114 -36 -36 -5 -70 -10 -76 -11 -7 -1 -9 -17 -6 -43 4 -36 1 -43
-22 -58 l-26 -17 -1 47 c-1 44 -2 43 -10 -21 -9 -67 -44 -165 -55 -153 -3 3 0
38 7 79 8 46 9 85 3 103 -7 27 -9 24 -14 -30 -5 -58 -5 -59 -20 -35 -8 14 -13
29 -12 34 2 4 -1 18 -5 30 -6 18 -8 16 -13 -14 -4 -26 -10 -34 -22 -32 -12 2
-16 -2 -12 -12 8 -22 -13 -54 -49 -72 l-32 -17 24 -9 c19 -7 29 -4 48 13 l23
22 0 -26 c0 -19 -8 -31 -30 -42 -29 -15 -35 -12 -32 16 1 4 -8 5 -18 2 -16 -4
-20 0 -20 19 0 13 6 30 13 37 10 10 8 15 -7 26 -10 8 -23 12 -27 9 -5 -3 -9 1
-10 8 0 7 -4 4 -9 -7 -8 -19 -9 -19 -9 3 -1 13 -5 31 -11 41 -7 14 -4 21 14
30 35 19 56 63 56 121 0 55 15 94 49 124 12 11 21 31 20 45 0 18 -2 21 -7 10
-4 -9 -23 -34 -43 -58 -32 -37 -38 -40 -50 -25 -11 13 -10 24 4 64 21 59 21
59 0 55 -10 -2 -21 -4 -25 -4 -4 -1 -13 -13 -21 -27 -12 -22 -15 -24 -26 -10
-11 12 -8 20 13 43 14 15 26 35 26 45 0 9 2 25 5 35 3 10 -2 2 -11 -17 -9 -19
-23 -43 -32 -53 -16 -18 -17 -18 -22 4 -3 13 2 38 12 57 9 19 14 41 10 50 -5
13 -8 10 -10 -11 -2 -16 -10 -31 -18 -34 -8 -3 -14 -11 -14 -19 0 -8 -4 -14
-10 -14 -5 0 -10 12 -10 27 0 14 -3 23 -7 20 -7 -7 -33 11 -33 23 0 4 14 13
30 20 17 7 33 16 36 21 5 9 -57 -15 -87 -34 -16 -10 -21 -9 -29 3 -7 11 -2 23
18 44 l27 30 -29 -18 c-25 -16 -30 -16 -44 -3 -13 14 -12 18 14 41 16 14 24
26 17 26 -6 0 -15 -4 -18 -10 -11 -18 -26 -11 -16 8 10 18 -17 62 -38 62 -6 0
-11 5 -11 12 0 6 -3 8 -7 4 -10 -10 -5 -156 6 -186 27 -71 19 -149 -19 -200
l-19 -25 -10 29 c-10 24 -8 32 14 58 14 16 25 39 25 51 0 18 -6 13 -29 -22
-28 -41 -29 -42 -36 -20 -5 15 -3 25 4 27 12 4 41 54 41 72 0 21 -16 9 -29
-22 l-14 -33 -4 29 c-4 23 2 34 26 53 37 29 42 52 6 29 -30 -19 -29 -21 -9 84
14 77 14 117 -1 71 -3 -12 -13 -21 -22 -21 -14 0 -14 3 1 25 9 13 16 32 16 42
-1 15 -5 13 -25 -10 -13 -15 -27 -27 -30 -27 -13 0 -3 31 21 59 28 34 15 42
-24 15 -20 -14 -23 -14 -28 1 -4 8 -1 22 6 30 10 13 8 15 -13 15 -16 0 -35 11
-50 30 -23 27 -51 41 -45 23 2 -5 -7 -24 -19 -43 -12 -19 -33 -66 -48 -105
-23 -61 -26 -85 -26 -181 0 -97 -2 -114 -19 -129 -10 -9 -23 -14 -29 -11 -12
7 -43 -16 -120 -91 -29 -29 -65 -60 -80 -69 l-26 -17 22 25 c21 22 21 25 7 40
-14 14 -9 20 56 63 76 52 120 96 120 123 0 12 -5 10 -17 -8 -33 -47 -157 -139
-170 -126 -9 8 27 47 54 57 20 7 68 63 139 164 29 40 74 159 103 272 8 28 24
53 51 76 22 19 40 37 40 40 0 17 -23 3 -68 -40 -52 -52 -82 -122 -82 -195 0
-40 -35 -123 -70 -168 -19 -25 -20 -25 -20 -3 0 12 4 24 8 27 5 3 7 31 5 62
-2 51 1 61 28 92 41 46 49 71 49 150 1 98 9 105 120 106 49 1 90 4 90 9 0 4
-4 7 -10 7 -5 0 -10 4 -10 10 0 5 -13 36 -29 69 -20 42 -25 61 -17 64 8 3 17
-12 24 -37 10 -39 66 -115 77 -104 3 2 -4 21 -14 42 -11 20 -22 54 -26 75 l-6
38 -67 2 c-43 1 -72 7 -82 16 -12 13 -6 15 52 15 37 0 73 3 82 6 23 9 20 31
-5 39 -21 7 -65 90 -79 150 -4 17 -12 29 -18 28 -7 -2 -12 -2 -12 0 0 13 75
176 87 189 8 9 12 22 7 29 -4 7 -3 10 4 5 6 -3 13 -2 17 4 3 5 2 10 -3 10 -10
0 -1 55 13 81 3 8 -7 -2 -24 -21 -17 -19 -28 -41 -26 -48 6 -17 -20 -69 -54
-107 -14 -16 -18 -23 -8 -16 22 17 22 16 -8 -57 -26 -63 -32 -107 -16 -116 4
-3 19 -38 31 -77 21 -64 25 -70 37 -53 7 10 13 12 13 6 0 -7 9 -12 19 -12 11
0 23 -4 26 -10 3 -6 -4 -10 -17 -10 -13 0 -40 -3 -60 -6 l-38 -7 0 39 c-1 58
-42 169 -63 168 -9 -1 -17 3 -17 8 0 6 -7 8 -15 4 -20 -7 -19 3 5 55 l20 44 0
-45 c1 -41 2 -43 12 -20 32 79 43 98 84 145 44 52 58 79 28 54 -20 -16 40 86
69 119 11 12 16 22 10 22 -6 0 -9 9 -6 20 3 11 10 20 15 20 15 0 200 -71 250
-96 54 -27 65 -30 49 -10 -26 31 -277 126 -333 126 -19 0 -28 -3 -21 -8 8 -5
1 -16 -23 -36 l-35 -28 16 36 c8 20 22 51 30 70 11 26 22 35 50 40 19 4 35 11
35 16 0 5 -13 5 -30 0 l-30 -9 22 28 c15 18 39 32 68 39 42 10 40 10 -24 5
-41 -3 -92 -16 -123 -29 -60 -27 -63 -28 -63 -16 0 10 55 35 120 54 27 8 45
19 45 28 0 10 14 17 40 21 39 6 39 6 -13 8 -31 0 -65 -5 -84 -15 -29 -15 -115
-44 -132 -44 -27 0 162 111 227 133 20 7 23 27 5 27 -7 -1 -48 -9 -90 -19 -67
-16 -78 -16 -78 -4 0 10 6 13 15 9 9 -3 18 1 21 9 4 8 19 15 34 15 36 0 80 16
80 30 0 5 -7 10 -15 10 -8 0 -15 -4 -15 -10 0 -5 -18 -10 -40 -10 -51 0 -52
17 -2 25 92 14 116 21 120 33 3 11 0 12 -16 3 -11 -6 -39 -11 -61 -11 l-41 0
21 24 c18 20 26 23 46 15 18 -6 25 -5 29 5 3 8 12 12 20 9 19 -7 18 17 -2 45
-20 30 -12 28 37 -8 34 -24 44 -27 60 -17 10 6 19 22 19 34 0 16 9 25 37 34
21 7 60 22 87 35 27 13 53 21 57 19 4 -3 20 2 35 10 26 13 29 13 32 -1 2 -8
-2 -22 -9 -30 -10 -12 -9 -13 4 -9 8 4 20 19 27 35 11 26 34 39 68 40 7 0 12
-13 12 -30 0 -16 5 -30 11 -30 6 0 8 -9 4 -22 -5 -20 -4 -21 5 -6 6 10 10 35
8 55 l-3 38 52 9 c68 11 106 2 98 -24 -4 -12 0 -26 9 -35 25 -25 38 44 26 138
-14 112 -37 148 -130 201 -50 29 -48 34 5 12 43 -18 46 -12 4 9 -19 10 -43 14
-62 11 -22 -4 -26 -3 -12 2 16 8 14 10 -14 15 -19 4 -50 7 -70 7 -26 1 -32 3
-20 10 17 10 223 -31 267 -54 45 -23 101 -98 116 -156 4 -14 -7 0 -24 30 -17
30 -38 62 -47 70 -18 18 -18 16 27 -75 32 -64 35 -78 35 -157 0 -49 3 -88 6
-88 3 0 14 10 25 23 25 28 30 112 11 184 -18 69 -2 57 19 -13 18 -62 12 -142
-15 -192 -6 -12 -8 -22 -3 -22 14 0 42 46 48 79 5 25 9 28 28 21 11 -5 29 -11
39 -14 14 -5 16 -10 8 -25 -9 -15 -8 -19 4 -17 8 1 21 8 27 14 7 7 17 12 24
12 7 0 10 8 7 19 -3 13 2 23 17 31 22 12 22 11 16 -16 -4 -15 -17 -41 -28 -57
l-21 -29 22 11 c12 7 31 27 41 44 29 48 24 21 -5 -30 -14 -23 -30 -43 -35 -43
-6 0 -10 -4 -10 -10 0 -14 31 -1 60 26 39 36 57 16 26 -29 -28 -40 -24 -46 13
-20 14 9 21 11 17 5 -4 -7 -3 -12 2 -12 5 0 15 14 22 30 7 17 19 30 28 30 13
0 13 -2 -1 -18 -25 -27 -21 -35 8 -16 25 16 55 14 85 -5 12 -8 11 -14 -10 -35
-28 -31 -19 -34 20 -6 l29 20 43 -22 c65 -34 76 -46 123 -138 25 -47 76 -122
115 -167 41 -49 70 -92 70 -105 0 -13 12 -50 26 -83 14 -33 36 -91 50 -130 14
-38 43 -100 65 -136 41 -69 47 -94 26 -102 -17 -7 -100 14 -109 28 -10 13 -10
25 0 24 24 -4 42 3 42 16 0 15 -16 19 -52 16 -20 -3 -24 15 -5 22 15 5 5 17
-20 22 -10 2 -20 4 -22 4 -2 1 2 7 8 14 6 8 8 17 4 20 -10 11 -53 8 -53 -3 0
-5 5 -10 10 -10 14 0 12 -37 -2 -43 -8 -3 -7 -6 4 -6 22 -1 32 -19 20 -34 -6
-7 -12 -25 -14 -42 -2 -21 -15 -37 -45 -58 -51 -36 -72 -28 -32 12 23 23 29
38 29 72 0 54 12 43 21 -19 l6 -47 2 43 c1 43 -39 142 -58 142 -5 0 -19 25
-31 55 -13 31 -24 54 -26 52 -7 -7 58 -177 67 -177 5 0 9 -17 9 -39 0 -28 -7
-45 -26 -65 -30 -30 -37 -31 -53 -12 -9 10 -6 24 9 57 20 46 26 114 11 138 -5
8 -10 -8 -13 -47 -2 -35 -12 -71 -23 -88 l-18 -28 -39 44 c-27 30 -35 47 -28
54 18 18 11 88 -16 142 -22 44 -33 55 -76 74 -27 12 -52 19 -56 16 -3 -3 15
-15 40 -26 24 -10 53 -29 64 -41 19 -22 19 -22 -3 -10 -12 6 -29 8 -38 5 -14
-6 -14 -9 5 -29 22 -23 24 -55 5 -62 -6 -2 -19 10 -28 27 -10 16 -23 30 -29
30 -7 0 -5 -7 4 -17 8 -10 18 -25 22 -33 4 -8 -4 -2 -18 14 -14 17 -23 33 -20
38 3 4 -7 13 -21 18 -38 14 -40 13 -19 -12 15 -18 13 -18 -11 3 -35 30 -65 43
-65 27 0 -7 -4 -7 -13 1 -16 13 -28 5 -20 -15 8 -22 -15 -16 -55 14 -20 15
-32 20 -27 12 22 -35 10 -38 -32 -9 -48 34 -68 32 -37 -2 l19 -22 -28 18 c-28
18 -45 16 -32 -5 4 -6 21 -20 39 -31 46 -28 22 -23 -27 5 -23 14 -68 32 -100
40 -32 8 -74 25 -93 37 -19 12 -37 19 -40 16 -3 -2 20 -19 51 -36 30 -17 55
-33 55 -36 0 -3 -25 9 -55 26 -31 17 -58 29 -61 26 -8 -7 97 -64 160 -86 31
-11 69 -29 85 -40 16 -12 36 -18 44 -15 8 3 18 1 22 -5 4 -8 -19 -11 -73 -11
-83 0 -139 -16 -262 -75 -62 -29 -51 -28 71 8 108 32 202 39 207 16 2 -14 -6
-17 -45 -17 -26 0 -93 -13 -148 -30 -55 -16 -127 -36 -160 -43 l-60 -13 40 -6
40 -6 -50 -22 c-27 -12 -63 -28 -80 -36 l-30 -13 35 -18 c32 -17 33 -18 15
-31 -22 -16 -12 -19 14 -4 14 7 37 1 91 -21 39 -17 74 -28 77 -25 3 3 -12 12
-33 21 -22 9 -57 24 -79 35 l-40 18 65 2 c36 1 57 4 48 7 -10 2 -18 9 -18 14
0 10 -79 1 -95 -12 -6 -4 -17 -4 -25 1 -11 7 -8 11 13 19 16 6 33 11 39 11 5
0 23 9 38 20 16 11 30 16 32 11 4 -11 248 -72 259 -66 4 3 31 0 60 -5 29 -6
71 -12 92 -15 21 -3 47 -9 57 -15 29 -15 36 7 11 34 -12 12 -21 31 -21 42 0
15 8 10 35 -22 33 -39 37 -41 70 -34 19 4 37 4 40 -1 3 -4 -11 -11 -32 -14
-21 -4 -45 -8 -53 -10 -18 -3 98 -8 158 -5 23 1 42 -3 42 -8 0 -5 -42 -12 -92
-15 -51 -4 -103 -9 -116 -13 -17 -5 -21 -3 -17 8 8 21 -68 40 -149 37 -40 -1
-82 6 -123 20 -34 11 -75 21 -90 20 -17 0 6 -10 57 -25 49 -15 108 -25 140
-24 30 0 73 -3 95 -6 l40 -8 -40 -7 c-54 -10 -147 -1 -224 22 -92 27 -120 21
-31 -7 82 -26 196 -44 250 -39 39 3 80 -4 80 -14 -2 -16 -82 -55 -140 -67 -77
-17 -70 -16 -70 -4 0 6 7 10 17 10 9 0 14 3 10 6 -3 3 -22 0 -43 -8 -23 -8
-39 -9 -41 -3 -1 6 -27 9 -55 8 -53 -3 -53 -3 -23 12 l30 14 -26 1 c-15 0 -32
-6 -39 -14 -9 -12 -5 -17 27 -25 21 -6 78 -16 126 -23 86 -12 90 -12 135 12
26 13 55 31 65 39 13 11 58 20 135 27 l117 11 -110 2 c-135 3 -106 19 52 28
l102 6 55 -58 c30 -32 53 -62 50 -67 -3 -4 -1 -8 5 -8 5 0 12 -8 14 -17 4 -16
5 -16 6 -1 0 9 9 19 19 21 14 4 14 5 -3 6 -12 0 -44 28 -75 64 -58 65 -46 62
41 -13 39 -33 48 -38 36 -19 -10 15 -42 46 -72 70 -30 24 -55 49 -55 56 0 6
-4 13 -9 15 -5 2 -13 20 -16 42 l-8 38 34 -7 c62 -12 68 -16 103 -64 29 -41
42 -50 85 -61 40 -9 63 -24 116 -75 36 -35 65 -67 65 -72 0 -4 35 -33 77 -63
117 -85 132 -99 144 -139 16 -54 1 -77 -56 -85 -25 -4 -50 -4 -57 0 -7 4 -8 3
-4 -4 4 -7 28 -13 54 -14 43 -1 41 -2 -18 -8 l-65 -7 59 -1 c65 -2 66 -6 24
-68 -30 -44 -113 -69 -166 -50 -20 7 -46 17 -57 20 l-20 8 20 -13 c11 -7 36
-18 55 -25 l35 -12 -35 -16 c-19 -8 -29 -15 -22 -16 6 0 12 -5 12 -11 0 -6
-14 1 -31 15 -17 14 -35 26 -40 26 -20 0 -6 -20 42 -61 45 -38 99 -123 85
-136 -2 -2 -23 19 -47 48 -61 71 -122 129 -136 129 -7 0 -13 -1 -13 -3 0 -7
122 -127 129 -127 17 0 62 -63 53 -72 -11 -11 -82 28 -82 45 0 15 -63 107 -73
107 -4 0 8 -23 28 -51 19 -28 35 -59 35 -68 0 -10 14 -22 35 -30 19 -7 48 -23
64 -37 74 -62 197 -104 216 -74 4 6 -9 10 -32 10 -39 0 -174 57 -187 79 -10
15 -8 15 76 -14 83 -29 78 -28 98 -26 8 1 -10 11 -40 23 -73 27 -110 62 -110
105 0 21 -10 45 -31 70 -17 21 -4 10 30 -25 33 -34 61 -71 61 -81 0 -23 26
-45 69 -60 51 -17 49 -6 -3 19 -26 12 -46 28 -46 36 0 21 -28 74 -53 102 -25
27 -22 27 30 2 45 -22 83 -63 83 -90 0 -21 16 -35 50 -45 14 -4 28 -12 32 -18
4 -7 15 -5 31 6 24 15 25 15 20 -4 -3 -12 -16 -26 -29 -31 -26 -12 -30 -23
-13 -34 14 -9 57 15 64 35 6 20 -19 94 -34 99 -6 2 -11 -8 -11 -22 0 -30 -11
-32 -45 -10 -16 10 -26 29 -30 57 -4 23 -18 71 -31 106 -24 64 -24 64 -5 85
40 43 85 186 63 200 -6 3 -13 24 -17 45 -7 44 -33 72 -117 125 -53 32 -58 39
-58 71 0 28 4 35 20 35 22 0 26 10 10 26 -8 8 -6 15 5 24 18 15 20 36 3 43 -7
3 -2 6 12 6 18 1 21 4 11 10 -9 6 -10 11 -2 15 14 9 15 66 1 66 -5 0 -10 -7
-10 -15 0 -8 -5 -15 -11 -15 -6 0 -9 -7 -5 -15 7 -20 -22 -19 -48 0 -19 15
-19 15 5 16 13 0 18 3 11 6 -9 3 2 13 27 24 47 20 51 39 19 73 -27 26 -132
225 -146 276 -6 19 -22 62 -36 95 -14 33 -26 70 -26 83 0 14 -20 44 -49 75
-41 44 -48 57 -44 80 5 26 9 28 34 23 43 -8 78 9 94 49 8 19 15 41 15 50 0 29
-16 15 -30 -27 -13 -37 -20 -43 -45 -46 l-30 -2 33 14 c36 17 44 54 15 77 -15
12 -16 12 -9 -6 4 -11 8 -22 8 -25 2 -22 -6 -30 -27 -30 -25 0 -25 0 -10 31 9
16 15 44 13 61 -3 35 -28 52 -28 19 0 -30 -41 -53 -87 -49 l-38 3 51 23 c57
26 157 123 178 174 11 26 11 40 0 82 -21 78 -20 81 41 107 60 26 73 46 23 34
-18 -4 -43 -7 -54 -6 -12 0 -37 -10 -55 -22 -39 -26 -51 -75 -25 -97 22 -18
20 -63 -4 -85 -20 -18 -20 -17 -20 11 0 55 -12 103 -27 109 -12 4 -14 0 -10
-16 6 -22 -1 -49 -12 -49 -4 0 -5 15 -3 34 5 46 -22 124 -58 167 l-29 34 -1
-45 c0 -53 -9 -90 -20 -90 -29 0 -37 153 -10 185 12 15 0 27 -16 17 -6 -4 -14
-20 -18 -37 -4 -16 -15 -39 -24 -49 -14 -15 -14 -18 -2 -14 11 3 18 -9 28 -46
18 -74 19 -90 2 -93 -10 -2 -22 13 -33 42 -11 24 -37 68 -59 96 -31 38 -38 53
-29 62 9 9 13 6 17 -11 7 -25 8 -26 35 -12 15 9 19 7 19 -7 1 -17 1 -17 11 0
6 9 9 32 7 50 l-3 32 -18 -32 c-22 -42 -37 -42 -37 -1 l0 31 -24 -22 -25 -23
-33 26 c-45 34 -173 92 -223 101 -21 4 -52 13 -67 21 -15 8 -39 14 -54 14 -27
0 -26 0 12 -29 21 -16 53 -41 69 -56 32 -29 27 -27 -55 22 -62 38 -151 63
-215 62 -33 -1 -51 -3 -40 -6 127 -28 228 -78 288 -142 60 -64 65 -101 5 -41
-39 39 -132 105 -198 140 -24 13 -24 12 -10 -5 14 -17 14 -18 -10 -5 -44 23
-217 40 -295 29 -135 -20 -280 -51 -322 -69 -70 -31 -51 0 25 41 69 38 148 67
90 34 -31 -17 -38 -31 -10 -20 9 4 40 16 67 26 l50 18 -95 -2 c-98 -2 -113 -7
-305 -105 -5 -3 1 7 15 23 14 15 52 41 85 56 59 28 59 29 25 29 -19 0 -48 -9
-65 -20z m535 -40 c11 -8 7 -9 -15 -4 -37 8 -45 14 -19 14 10 0 26 -5 34 -10z
m525 -4 c1 -1 13 -19 27 -41 25 -37 48 -87 48 -103 0 -3 -14 14 -32 39 -17 24
-47 61 -67 82 l-36 38 30 -7 c17 -4 30 -7 30 -8z m-397 -2 c12 -4 34 -25 47
-49 31 -53 31 -60 1 -32 -14 13 -52 37 -87 55 l-62 32 39 0 c21 0 49 -3 62 -6z
m565 -86 c15 -11 49 -53 77 -94 55 -85 77 -160 64 -220 -7 -38 -8 -36 -15 32
-6 64 -43 174 -54 162 -2 -2 4 -28 15 -56 12 -30 20 -75 19 -105 l-1 -52 -13
71 c-14 79 -94 258 -120 268 -13 5 -13 3 1 -19 18 -28 44 -119 44 -157 0 -41
-28 -25 -36 20 -13 83 -36 144 -66 178 l-32 37 44 -23 c25 -12 57 -31 73 -42z
m-1053 47 c0 -6 -92 -46 -96 -42 -4 4 77 47 89 47 4 0 7 -2 7 -5z m263 -2 c-7
-2 -19 -2 -25 0 -7 3 -2 5 12 5 14 0 19 -2 13 -5z m405 -57 c33 -37 52 -91 51
-141 0 -26 -4 -21 -30 34 -16 36 -48 89 -70 119 -40 53 -40 53 -11 38 16 -8
43 -31 60 -50z m-408 19 c52 -38 60 -61 11 -30 -23 14 -65 32 -94 40 l-52 14
51 0 c39 1 58 -5 84 -24z m-390 10 c0 -2 -10 -9 -22 -15 -22 -11 -22 -10 -4 4
21 17 26 19 26 11z m464 -15 c33 -20 80 -92 74 -112 -2 -6 -21 12 -42 40 -20
28 -49 60 -64 71 -35 26 -9 27 32 1z m607 -92 c24 -36 39 -68 39 -87 0 -48
-15 -37 -34 27 -10 31 -33 77 -50 102 -18 25 -36 52 -40 60 -13 26 43 -42 85
-102z m-714 56 c12 -7 28 -14 35 -15 15 0 88 -85 88 -101 0 -5 -28 15 -61 46
-34 30 -66 53 -71 50 -5 -3 1 -16 13 -28 11 -12 27 -37 35 -56 13 -34 13 -35
-3 -10 -21 30 -89 98 -123 123 l-25 18 45 -6 c25 -3 55 -13 67 -21z m408 -16
l16 -33 -20 25 c-20 24 -26 40 -16 40 2 0 12 -15 20 -32z m-1050 12 c-27 -5
-68 -8 -90 -8 l-40 1 35 7 c19 4 60 7 90 7 l55 0 -50 -7z m1185 -32 c15 -25
20 -50 19 -103 l-1 -70 -13 70 c-7 39 -18 83 -24 98 -19 50 -10 52 19 5z
m-816 13 c4 -5 -3 -7 -14 -4 -23 6 -26 13 -6 13 8 0 17 -4 20 -9z m646 -11 c0
-5 -2 -10 -4 -10 -3 0 -8 5 -11 10 -3 6 -1 10 4 10 6 0 11 -4 11 -10z m280
-10 c6 -11 8 -20 6 -20 -3 0 -10 9 -16 20 -6 11 -8 20 -6 20 3 0 10 -9 16 -20z
m-1285 -9 c-80 -23 -143 -53 -180 -85 l-30 -27 53 26 c56 27 73 26 20 -1 -18
-10 -57 -35 -85 -56 -29 -21 -53 -35 -53 -31 0 32 169 171 191 157 5 -3 9 -1
9 5 0 10 68 29 110 29 14 0 -2 -7 -35 -17z m496 0 c75 -29 89 -45 89 -105 l0
-50 -28 45 c-16 24 -54 61 -85 83 -32 21 -57 40 -57 42 0 9 33 3 81 -15z
m-858 -25 c-35 -19 -104 -66 -155 -106 -75 -60 -87 -67 -68 -39 42 62 74 91
135 121 114 58 188 78 88 24z m1616 -25 c0 -14 -1 -14 -6 -1 -3 8 -10 24 -15
35 -9 20 -9 20 6 1 9 -11 16 -27 15 -35z m506 -97 l0 -72 28 14 c25 13 27 13
27 -3 0 -29 -12 -63 -20 -58 -4 2 -12 -7 -18 -20 -6 -13 -25 -31 -42 -40 -33
-17 -36 -12 -15 25 17 29 19 118 4 140 -8 12 -9 8 -8 -15 2 -16 -1 -45 -5 -64
-11 -44 -21 -26 -31 52 -5 44 -3 64 8 81 9 13 19 40 23 61 l7 37 21 -33 c16
-26 21 -50 21 -105z m-1940 100 c-39 -32 -70 -50 -60 -35 7 12 75 60 85 60 3
0 -8 -11 -25 -25z m412 -1 c20 -10 45 -29 55 -43 18 -25 43 -129 33 -138 -12
-12 -34 36 -35 74 0 65 -56 107 -170 127 -14 3 -1 3 28 2 29 -2 69 -12 89 -22z
m135 -8 c60 -38 98 -95 98 -149 0 -35 -16 -26 -24 14 -3 20 -31 56 -74 100
-37 39 -65 70 -62 70 3 0 31 -16 62 -35z m952 -22 c22 -63 22 -153 0 -153 -12
0 -14 7 -9 30 6 26 -5 105 -22 164 -11 39 16 4 31 -41z m-1288 32 c-1 -8 -12
-25 -24 -38 -25 -27 -30 -46 -6 -26 19 16 44 20 58 11 6 -3 21 -5 33 -3 25 3
64 -33 87 -80 l14 -29 -43 30 c-30 21 -55 30 -82 29 -21 0 -65 3 -98 6 -58 7
-62 6 -94 -24 -20 -19 -30 -35 -25 -43 6 -9 9 -9 12 0 5 17 64 15 112 -4 48
-19 54 -37 8 -23 -79 22 -159 3 -183 -45 l-15 -31 6 45 c9 60 26 91 66 122 18
14 46 38 62 54 22 23 66 47 113 63 1 1 0 -6 -1 -14z m1193 -45 c-1 -72 -18
-77 -18 -5 -1 49 2 65 9 55 5 -8 9 -31 9 -50z m-1579 36 c0 -2 -7 -7 -16 -10
-8 -3 -12 -2 -9 4 6 10 25 14 25 6z m814 -13 c21 -10 37 -26 41 -41 3 -13 5
-25 3 -26 -2 -1 -22 17 -45 41 -48 48 -48 50 1 26z m-378 -2 c-3 -5 -18 -11
-33 -14 -26 -5 -26 -4 -8 9 21 15 49 19 41 5z m89 3 c16 -7 45 -54 45 -75 0
-6 -15 2 -34 17 -19 16 -45 37 -58 46 l-23 17 27 1 c14 0 34 -3 43 -6z m576
-49 c8 -16 6 -15 -10 4 -12 13 -21 28 -21 35 0 12 14 -5 31 -39z m1149 25 c-8
-15 -7 -34 7 -76 17 -55 17 -56 -6 -99 -13 -24 -26 -43 -30 -42 -4 1 -26 -17
-51 -40 -49 -47 -79 -59 -38 -15 14 15 33 41 41 58 9 17 23 34 32 37 8 4 22
22 31 41 16 33 16 36 -5 69 -26 42 -26 42 1 67 27 25 32 25 18 0z m-1545 -60
c5 -35 4 -33 -22 30 -12 31 -12 33 1 20 9 -8 18 -31 21 -50z m1069 -3 c9 -51
-1 -98 -20 -90 -10 3 -14 21 -14 57 0 101 19 119 34 33z m-817 -9 c-3 -8 -6
-5 -6 6 -1 11 2 17 5 13 3 -3 4 -12 1 -19z m1063 -34 c0 -54 -23 -124 -41
-124 -4 0 -3 14 3 31 6 17 8 55 5 84 -6 55 -3 65 20 65 9 0 13 -16 13 -56z
m-1538 4 c8 -7 18 -21 21 -31 5 -14 -1 -12 -28 9 -19 14 -35 28 -35 30 0 9 27
3 42 -8z m-366 -45 c-3 -16 -10 -62 -16 -103 -5 -41 -14 -88 -19 -105 -8 -26
-9 -20 -10 35 0 36 4 85 10 110 7 25 13 54 14 65 4 26 3 25 16 25 6 0 8 -11 5
-27z m1741 5 c-3 -8 -6 -5 -6 6 -1 11 2 17 5 13 3 -3 4 -12 1 -19z m-1537 -63
c40 -21 38 -27 -2 -11 -18 7 -40 16 -48 19 -12 4 -11 6 3 6 10 1 31 -6 47 -14z
m-317 -20 c-3 -9 -8 -14 -10 -11 -3 3 -2 9 2 15 9 16 15 13 8 -4z m18 -215
c-6 -38 -8 -30 -13 54 -3 54 -3 108 1 120 9 32 19 -122 12 -174z m2109 187 c0
-2 -10 -12 -22 -23 l-23 -19 19 23 c18 21 26 27 26 19z m-1871 -18 c45 -16 38
-25 -16 -21 -86 5 -92 7 -63 20 32 14 41 14 79 1z m-89 -79 c0 -5 -4 -10 -10
-10 -5 0 -10 5 -10 10 0 6 5 10 10 10 6 0 10 -4 10 -10z m-254 -70 c-17 -40
-45 -83 -79 -119 -29 -31 -63 -69 -75 -86 -21 -27 -21 -26 3 20 14 28 41 61
60 73 41 29 59 54 86 127 12 31 23 54 26 52 2 -3 -7 -33 -21 -67z m-89 29
c-33 -27 -104 -114 -144 -175 -23 -36 13 71 43 127 26 47 34 55 74 65 67 18
68 17 27 -17z m403 -35 c0 -2 -9 0 -20 6 -11 6 -20 13 -20 16 0 2 9 0 20 -6
11 -6 20 -13 20 -16z m-371 -16 c-37 -54 -71 -87 -84 -82 -7 3 -27 -16 -46
-45 -18 -28 -35 -49 -37 -46 -10 9 70 115 102 134 17 11 42 31 55 45 33 35 37
33 10 -6z m326 14 c-3 -3 -11 0 -18 7 -9 10 -8 11 6 5 10 -3 15 -9 12 -12z
m-230 -89 c-9 -15 -13 -19 -10 -8 4 11 9 34 13 50 5 25 7 27 10 8 2 -12 -4
-34 -13 -50z m410 57 c3 -5 1 -10 -4 -10 -6 0 -11 5 -11 10 0 6 2 10 4 10 3 0
8 -4 11 -10z m-36 -47 c-16 -14 -27 -28 -24 -31 3 -3 -7 -18 -22 -34 -15 -15
-23 -28 -20 -28 4 0 3 -9 -3 -21 -7 -11 -14 -19 -16 -16 -7 6 17 67 27 67 4 0
6 6 3 13 -7 20 48 85 68 79 14 -3 12 -8 -13 -29z m-139 7 c8 -5 11 -10 5 -10
-5 0 -17 5 -25 10 -8 5 -10 10 -5 10 6 0 17 -5 25 -10z m-165 -40 c3 -5 1 -10
-4 -10 -6 0 -11 5 -11 10 0 6 2 10 4 10 3 0 8 -4 11 -10z m-141 -49 c-9 -23
-25 -48 -36 -56 -12 -7 -36 -35 -54 -61 -36 -51 -43 -46 -19 13 13 31 114 152
123 147 2 -1 -5 -20 -14 -43z m142 -37 c-14 -26 -15 -27 -16 -7 0 33 11 56 22
45 6 -6 4 -20 -6 -38z m179 -24 c-4 -38 -13 -91 -21 -117 -8 -27 -12 -34 -9
-18 3 17 8 69 11 118 4 48 11 87 16 87 6 0 7 -27 3 -70z m104 6 c-3 -3 -11 5
-18 17 -13 21 -12 21 5 5 10 -10 16 -20 13 -22z m-315 -3 c-9 -37 -59 -161
-68 -171 -13 -12 5 50 36 126 31 75 43 92 32 45z m-70 -25 c-8 -23 -21 -49
-28 -58 -8 -8 -18 -27 -21 -43 -11 -41 -30 -48 -22 -7 4 18 7 44 7 57 0 22 56
93 74 93 3 0 -2 -19 -10 -42z m500 17 c-22 -17 -34 -19 -34 -6 0 5 8 12 18 14
32 9 36 7 16 -8z m-187 -17 c-3 -8 -6 -5 -6 6 -1 11 2 17 5 13 3 -3 4 -12 1
-19z m44 -1 c-13 -13 -26 -3 -16 12 3 6 11 8 17 5 6 -4 6 -10 -1 -17z m4 -75
c-14 -45 -36 -105 -49 -133 l-24 -51 -7 31 c-5 25 3 50 46 135 30 58 55 104
56 102 2 -2 -8 -40 -22 -84z m-140 31 c-13 -77 -38 -152 -48 -146 -5 3 -7 0
-5 -8 9 -24 -28 -82 -92 -144 -52 -51 -60 -56 -49 -30 7 17 27 46 44 65 55 60
74 95 104 188 16 50 32 96 36 102 12 20 16 10 10 -27z m65 -43 c-10 -36 -19
-56 -19 -44 -1 12 4 36 10 55 6 19 13 40 15 48 3 8 6 12 8 10 3 -2 -4 -33 -14
-69z m183 -58 c-20 -45 -38 -80 -40 -78 -5 5 38 116 55 144 28 44 22 14 -15
-66z m-399 21 c-13 -53 -57 -122 -96 -150 -22 -15 -53 -43 -70 -62 l-30 -36
16 32 c9 18 25 37 36 43 11 6 20 17 20 24 0 7 11 23 25 36 14 13 25 29 25 36
0 7 6 17 14 21 8 4 24 25 36 46 26 44 33 47 24 10z m482 -30 c-13 -27 -33 -57
-45 -67 l-22 -20 14 34 c14 32 63 100 73 100 2 0 -7 -21 -20 -47z m-445 -41
c-11 -21 -27 -45 -37 -53 -16 -13 -16 -12 -4 11 15 28 52 80 57 80 2 0 -5 -17
-16 -38z m136 16 c-3 -8 -6 -5 -6 6 -1 11 2 17 5 13 3 -3 4 -12 1 -19z m-315
-26 c-2 -22 -14 -52 -28 -68 l-24 -29 20 45 c11 25 20 55 20 68 0 12 3 22 8
22 4 0 6 -17 4 -38z m284 -56 c-18 -62 -40 -88 -25 -29 14 53 31 95 36 89 3
-2 -2 -29 -11 -60z m31 -45 c-5 -46 -43 -138 -53 -129 -2 3 3 22 10 44 8 21
20 60 27 87 15 61 23 60 16 -2z m1777 33 c5 -14 4 -15 -9 -4 -17 14 -19 20 -6
20 5 0 12 -7 15 -16z m-1673 -73 c-6 -38 -11 -86 -11 -105 0 -25 -4 -36 -15
-36 -11 0 -15 11 -15 41 0 44 38 185 47 176 2 -3 0 -37 -6 -76z m1389 69 c0
-5 -10 -10 -22 -9 -22 0 -22 1 -3 9 11 5 21 9 23 9 1 1 2 -3 2 -9z m61 -20 c5
0 9 7 9 15 0 22 21 18 27 -5 5 -19 7 -20 29 -5 13 8 28 15 34 15 14 0 13 -27
-2 -33 -8 -3 -6 -6 5 -6 10 -1 20 6 23 14 7 17 24 10 24 -9 0 -26 -64 -46
-142 -45 l-73 1 70 13 70 14 -75 -5 -75 -4 40 15 40 15 -42 -4 c-48 -5 -67 8
-28 18 14 4 25 11 25 17 0 6 7 3 16 -5 8 -9 20 -16 25 -16z m219 -11 c0 -6 -4
-7 -10 -4 -5 3 -10 11 -10 16 0 6 5 7 10 4 6 -3 10 -11 10 -16z m-2045 -17
c-11 -10 -21 -25 -23 -35 -2 -10 -11 -32 -22 -50 -19 -33 -46 -128 -52 -182
l-3 -29 -18 27 c-18 27 -18 30 3 95 27 83 113 213 129 196 3 -3 -3 -13 -14
-22z m2239 12 c3 -8 2 -12 -4 -9 -6 3 -10 10 -10 16 0 14 7 11 14 -7z m-1924
-75 c-13 -91 -18 -109 -33 -109 -8 0 -8 -3 1 -12 7 -7 12 -34 12 -61 0 -32 4
-46 11 -41 7 4 9 -2 7 -16 -3 -25 -33 -49 -45 -37 -4 4 -2 17 5 27 16 26 15
46 -3 98 -13 37 -13 47 -1 70 7 15 19 52 25 82 16 71 20 84 26 78 3 -3 1 -38
-5 -79z m1710 60 c0 -6 -4 -7 -10 -4 -5 3 -10 11 -10 16 0 6 5 7 10 4 6 -3 10
-11 10 -16z m-1610 -26 c-11 -17 -11 -17 -6 0 3 10 6 24 7 30 0 9 2 9 5 0 3
-7 0 -20 -6 -30z m1590 11 c0 -8 -4 -12 -10 -9 -5 3 -10 13 -10 21 0 8 5 12
10 9 6 -3 10 -13 10 -21z m-2127 1 c-3 -9 -8 -14 -10 -11 -3 3 -2 9 2 15 9 16
15 13 8 -4z m1809 -8 c13 -21 9 -28 -12 -17 -11 6 -20 16 -20 23 0 8 -3 8 -9
-2 -9 -14 -31 -7 -31 10 0 13 63 1 72 -14z m288 -3 c0 -10 -6 -14 -14 -11 -8
3 -16 1 -19 -6 -2 -8 -30 -12 -80 -12 -42 0 -77 -1 -77 -2 0 -1 33 -20 73 -43
86 -48 78 -53 -13 -7 -89 44 -86 61 10 67 41 3 84 10 95 17 26 16 25 16 25 -3z
m-240 -38 c0 -6 -7 -2 -15 8 -8 11 -15 25 -15 30 0 6 7 2 15 -8 8 -11 15 -25
15 -30z m350 -8 c28 -36 29 -39 7 -19 -33 30 -36 17 -5 -18 13 -14 1 -6 -25
19 -55 52 -64 43 -10 -12 20 -21 31 -38 25 -38 -15 0 -94 81 -87 89 13 12 41
9 59 -7 18 -16 18 -16 7 6 -18 33 -8 27 29 -20z m-2086 -25 c-16 -51 -61 -129
-49 -83 9 32 53 130 58 130 3 0 -1 -21 -9 -47z m2026 -30 c0 -18 -7 -16 -43 9
l-32 22 20 -23 20 -24 -25 8 c-14 4 -47 19 -75 33 l-50 26 53 7 c29 4 56 10
59 13 9 8 73 -54 73 -71z m-450 56 c-87 -7 -112 -13 -214 -48 -33 -12 -62 -19
-64 -16 -25 24 168 73 283 72 l80 0 -85 -8z m-1486 -56 c-46 -59 -60 -73 -49
-53 12 22 76 100 82 100 3 0 -12 -21 -33 -47z m1666 37 c4 7 15 -6 29 -34 28
-62 26 -72 -4 -16 -13 25 -24 38 -25 30 0 -13 -1 -13 -10 0 -5 8 -9 20 -9 25
0 6 3 4 6 -4 4 -10 7 -10 13 -1z m-60 -19 c17 -33 11 -48 -10 -22 -11 13 -20
27 -20 32 0 16 19 9 30 -10z m-170 -41 c0 -27 -1 -50 -2 -50 -12 1 -102 31
-119 41 -21 11 -20 13 32 34 83 35 89 34 89 -25z m320 20 c8 -5 10 -10 4 -10
-7 0 -22 9 -35 21 -19 16 -20 18 -4 10 11 -6 27 -15 35 -21z m-1719 2 c-5 -9
-20 -26 -32 -37 -24 -20 -24 -20 -9 0 36 51 60 72 41 37z m1517 -35 c-2 -23
-9 -33 -24 -35 -23 -3 -59 31 -49 48 4 6 13 2 24 -11 10 -13 23 -19 29 -15 17
10 15 43 -3 50 -8 3 -15 0 -15 -6 0 -6 -3 -9 -6 -5 -14 14 7 27 27 16 15 -8
19 -19 17 -42z m712 27 c0 -8 0 -17 1 -21 1 -12 -15 -14 -30 -4 -18 11 -5 52
15 44 7 -3 14 -11 14 -19z m-199 -11 c13 -16 12 -17 -3 -4 -17 13 -22 21 -14
21 2 0 10 -8 17 -17z m389 8 c0 -12 -20 -27 -47 -35 -16 -5 -23 -3 -23 7 0 8
10 19 23 25 28 13 47 15 47 3z m-650 -11 c8 -5 11 -10 5 -10 -5 0 -17 5 -25
10 -8 5 -10 10 -5 10 6 0 17 -5 25 -10z m100 -20 c0 -5 -17 -10 -37 -10 -28 0
-34 3 -23 10 20 13 60 13 60 0z m40 -14 c0 -13 3 -31 6 -40 4 -10 1 -16 -7
-16 -9 0 -15 14 -17 40 -1 22 2 40 8 40 5 0 10 -11 10 -24z m-1679 -49 c1 -29
4 -40 6 -24 7 42 23 22 23 -28 0 -35 -5 -48 -26 -64 -15 -12 -35 -21 -45 -21
-16 0 -15 3 7 25 24 24 25 29 18 101 -5 57 -4 75 4 70 7 -4 13 -31 13 -59z
m1332 48 c4 -8 2 -17 -3 -20 -6 -4 -10 3 -10 14 0 25 6 27 13 6z m629 -2 c-6
-2 -9 -10 -6 -15 4 -7 2 -8 -5 -4 -13 9 -5 26 12 25 9 0 8 -2 -1 -6z m-317
-13 c3 -6 -5 -10 -19 -10 -14 0 -28 5 -31 10 -3 6 5 10 19 10 14 0 28 -4 31
-10z m-1972 -15 c-3 -9 -8 -14 -10 -11 -3 3 -2 9 2 15 9 16 15 13 8 -4z m147
-24 c-6 -12 -15 -21 -21 -21 -5 0 -2 15 7 33 10 17 19 27 21 20 2 -7 -1 -21
-7 -32z m1753 32 c-7 -2 -19 -2 -25 0 -7 3 -2 5 12 5 14 0 19 -2 13 -5z m73
-24 c3 -5 -15 -9 -40 -9 -25 0 -48 4 -51 10 -3 5 13 9 40 8 25 0 48 -4 51 -9z
m-1755 -62 c-13 -13 -15 1 -4 30 7 17 8 17 11 -1 2 -10 -1 -23 -7 -29z m2129
18 c15 -16 19 -25 10 -25 -15 0 -50 29 -50 42 0 15 16 8 40 -17z m-2297 -11
c34 -15 92 -46 130 -70 37 -24 67 -39 67 -34 0 5 13 7 30 4 20 -5 40 0 65 14
l35 21 0 -24 c0 -23 2 -24 20 -13 15 10 22 10 32 0 9 -9 7 -12 -11 -12 -21 0
-21 -1 -5 -17 20 -20 1 -32 -21 -13 -12 10 -15 10 -15 -1 0 -16 37 -42 42 -30
2 5 17 6 33 4 25 -4 33 -12 42 -41 15 -49 5 -61 -19 -23 -21 32 -38 40 -38 19
0 -10 -2 -10 -9 0 -5 9 -10 -7 -14 -42 -3 -31 -13 -70 -21 -88 -9 -17 -16 -54
-17 -82 -1 -58 -14 -99 -46 -142 -32 -43 -35 -26 -6 31 22 44 24 58 19 125 -5
57 -3 81 9 100 17 29 19 22 5 -14 -13 -35 5 -33 19 2 13 31 15 55 11 97 l-3
30 -6 -35 c-5 -29 -10 -34 -28 -32 -40 5 -53 -31 -53 -148 0 -82 -5 -114 -20
-147 -10 -24 -21 -43 -24 -43 -11 0 -76 43 -76 50 0 30 62 100 89 100 13 0 14
21 2 52 -5 15 -4 47 5 88 16 77 18 130 4 130 -5 0 -10 -10 -10 -22 0 -50 -23
-149 -32 -140 -6 6 -4 29 6 63 18 60 21 123 6 114 -5 -3 -10 -17 -10 -31 0
-47 -21 -113 -35 -108 -10 4 -8 19 7 70 11 36 18 70 16 76 -3 7 -15 -22 -27
-63 -41 -132 -43 -134 -121 -98 -67 31 -96 42 -85 31 20 -19 130 -72 149 -72
11 0 16 -3 13 -6 -8 -8 -137 28 -137 38 0 5 -4 8 -10 8 -5 0 -10 -10 -10 -23
0 -27 -28 -70 -41 -62 -5 4 -9 -4 -9 -17 0 -25 55 -115 98 -161 25 -26 31 -28
79 -22 59 7 107 -14 96 -42 -5 -12 -2 -13 13 -6 28 15 44 5 44 -28 0 -34 -13
-36 -85 -14 -60 18 -70 12 -21 -11 20 -10 36 -24 36 -31 0 -18 -6 -17 -48 12
-47 32 -62 32 -33 1 23 -24 21 -60 -2 -37 -19 19 -31 12 -14 -7 22 -24 24 -50
3 -33 -17 15 -20 10 -36 -58 l-13 -53 -30 31 c-27 26 -31 37 -30 78 l2 48 -14
-45 -13 -45 -2 65 -2 65 -9 -44 c-12 -64 -19 -62 -21 5 -1 43 -2 49 -5 21 -6
-53 -23 -35 -23 24 0 31 -4 48 -10 44 -5 -3 -10 -16 -10 -28 0 -20 -2 -19 -20
8 -12 19 -16 33 -10 39 15 15 12 30 -4 17 -11 -9 -19 1 -40 50 -15 33 -35 63
-43 66 -12 5 -14 16 -9 52 4 25 11 100 16 165 13 153 29 187 123 266 39 33 72
60 74 60 2 0 32 -12 66 -26z m1967 16 c0 -5 -4 -10 -10 -10 -5 0 -10 5 -10 10
0 6 5 10 10 10 6 0 10 -4 10 -10z m390 -19 c8 -16 7 -19 -8 -17 -9 2 -16 6
-14 9 1 4 2 12 2 17 0 16 8 12 20 -9z m-2550 -11 c6 -11 8 -20 6 -20 -3 0 -10
9 -16 20 -6 11 -8 20 -6 20 3 0 10 -9 16 -20z m2648 -10 c3 0 -3 -9 -12 -19
-20 -22 -46 -17 -46 8 0 9 -6 23 -12 30 -9 9 -1 8 26 -3 21 -9 41 -16 44 -16z
m-2688 -10 c6 -11 8 -20 6 -20 -3 0 -10 9 -16 20 -6 11 -8 20 -6 20 3 0 10 -9
16 -20z m-10 -43 c0 -5 -4 -5 -10 -2 -5 3 -10 14 -10 23 0 15 2 15 10 2 5 -8
10 -19 10 -23z m1827 -43 c-3 -3 -12 -4 -19 -1 -8 3 -5 6 6 6 11 1 17 -2 13
-5z m-1183 -143 c14 -26 14 -30 -3 -45 -25 -23 -32 -20 -24 12 3 15 6 35 5 45
-1 25 5 21 22 -12z m84 -23 c19 -19 14 -25 -18 -20 -25 3 -28 7 -19 18 14 17
22 17 37 2z m-416 -102 c18 -3 35 -5 37 -5 3 -1 0 -6 -6 -12 -19 -19 -133 17
-133 42 0 4 16 1 35 -7 19 -8 49 -16 67 -18z m-16 -38 c33 -9 40 -15 36 -30
-5 -22 -4 -22 -51 1 -43 23 -81 60 -46 47 11 -4 39 -12 61 -18z m-15 -54 c55
-34 44 -40 -19 -11 -29 13 -49 27 -45 31 11 10 22 7 64 -20z m440 -10 c10 -28
5 -44 -10 -28 -5 5 -12 19 -16 32 -9 32 13 28 26 -4z m-440 -30 c17 -8 29 -18
26 -20 -3 -3 -20 4 -38 15 -40 25 -31 28 12 5z m39 -56 c0 -14 -33 -8 -52 9
-10 9 -18 19 -18 23 0 10 69 -23 70 -32z m390 34 c0 -5 -11 -35 -24 -68 -19
-46 -24 -77 -24 -138 0 -59 -4 -82 -16 -94 -15 -15 -16 -15 -16 5 0 12 -4 25
-10 28 -15 9 -12 43 7 71 9 14 17 38 18 55 3 38 45 149 56 149 5 0 9 -4 9 -8z
m50 -47 c0 -59 -49 -205 -69 -205 -17 0 0 121 21 155 10 17 18 44 18 61 0 17
3 34 7 37 10 11 23 -15 23 -48z m2018 -75 l20 -59 -41 26 c-23 15 -43 28 -45
28 -5 3 30 65 38 65 4 0 17 -27 28 -60z m-1961 -1 c-33 -52 -61 -172 -62 -263
0 -49 -1 -82 -3 -73 -3 13 -8 11 -27 -11 l-24 -27 -1 24 c0 22 -13 22 -16 0
-1 -5 -2 -12 -3 -15 0 -3 -8 2 -16 10 -12 12 -13 20 -5 35 13 24 13 44 1 36
-16 -10 -17 49 -1 62 12 9 19 7 35 -13 l20 -25 2 42 c2 22 11 55 22 73 18 30
27 57 52 155 9 39 12 42 26 29 13 -14 13 -18 0 -39z m1469 26 c10 -8 14 -15 8
-15 -5 0 -19 7 -30 15 -10 8 -14 15 -8 15 5 0 19 -7 30 -15z m-1322 -67 c-8
-65 -14 -73 -15 -25 -1 21 -2 43 -3 50 -3 16 3 27 15 27 6 0 7 -20 3 -52z
m1383 16 c-3 -3 10 -26 29 -51 38 -50 41 -58 19 -67 -11 -4 -19 3 -26 22 -6
15 -21 41 -35 59 -29 39 -30 43 -2 43 12 0 19 -3 15 -6z m-43 -20 c5 -14 4
-15 -9 -4 -17 14 -19 20 -6 20 5 0 12 -7 15 -16z m-95 -49 c30 -44 23 -61 -31
-70 -37 -7 -40 -9 -20 -16 14 -5 22 -16 21 -31 0 -13 -3 -17 -6 -10 -7 19 -23
14 -23 -7 0 -11 -5 -23 -10 -26 -7 -4 -9 2 -5 18 4 14 2 34 -4 45 -8 15 -7 23
4 32 19 16 19 50 0 50 -8 0 -15 -7 -15 -15 0 -17 -46 -39 -67 -31 -23 9 -14
23 17 30 24 4 32 12 36 36 6 27 10 30 43 30 30 0 40 -6 60 -35z m57 -10 c16
-25 13 -55 -6 -55 -5 0 -10 8 -10 19 0 10 -9 30 -20 44 -11 14 -20 28 -20 31
0 13 41 -16 56 -39z m-1828 13 c-2 -13 -7 -23 -13 -23 -5 0 -11 10 -13 23 -2
15 2 22 13 22 11 0 15 -7 13 -22z m25 -8 c-3 -11 -7 -20 -9 -20 -2 0 -4 9 -4
20 0 11 4 20 9 20 5 0 7 -9 4 -20z m-92 -75 c-12 -27 -20 -50 -18 -52 7 -7 27
24 41 63 11 31 15 35 21 21 8 -18 -9 -43 -84 -127 -23 -25 -41 -41 -41 -37 0
5 10 42 22 83 16 57 25 74 40 74 19 0 24 15 8 25 -5 3 -10 14 -10 23 0 14 3
13 21 -5 l21 -21 -21 -47z m464 -17 c-5 -69 -2 -110 9 -158 20 -84 20 -153 0
-196 -22 -46 -35 -52 -23 -12 14 50 11 182 -7 269 -13 64 -13 88 -4 134 18 89
33 68 25 -37z m172 11 c-3 -10 -1 -19 5 -21 14 -5 28 -76 28 -148 0 -46 -8
-82 -25 -124 -13 -33 -23 -62 -21 -64 2 -2 16 16 31 40 14 24 24 34 21 23 -3
-11 -10 -38 -15 -61 -6 -22 -20 -49 -31 -59 -23 -21 -87 -31 -72 -12 16 21 42
114 42 149 0 18 -5 40 -10 48 -7 11 -10 3 -11 -30 l0 -45 -20 54 c-17 50 -18
56 -3 72 9 10 22 35 29 56 l13 38 7 -50 c3 -28 9 -61 12 -75 16 -73 24 83 8
165 -3 17 -8 50 -11 75 l-5 45 17 -29 c8 -15 14 -36 11 -47z m1669 4 c-7 -7
-26 7 -26 19 0 6 6 6 15 -2 9 -7 13 -15 11 -17z m-246 -3 c0 -5 -8 -16 -17
-26 -16 -15 -17 -15 -24 2 -11 29 -10 32 9 37 20 4 32 -1 32 -13z m-2131 -42
c-18 -62 -33 -73 -25 -18 6 41 24 76 33 66 2 -2 -1 -24 -8 -48z m765 30 c3
-13 5 -45 5 -73 l-1 -50 -17 65 c-9 36 -15 68 -13 73 7 14 20 7 26 -15z m1276
2 c0 -16 -26 -40 -43 -40 -3 0 -7 14 -9 30 -4 27 -2 30 24 30 21 0 28 -5 28
-20z m-80 -4 c0 -13 -36 -46 -50 -46 -6 0 -10 6 -10 14 0 8 -3 21 -6 30 -5 12
1 15 30 14 20 -1 36 -6 36 -12z m255 -27 c-4 -5 -15 -14 -27 -20 -20 -11 -20
-11 -2 14 17 23 42 28 29 6z m-634 -13 c47 -20 50 -25 34 -55 -19 -38 -98 -73
-109 -47 -3 7 -8 6 -15 -4 -6 -9 -7 -18 -1 -24 17 -17 11 -25 -30 -36 -40 -11
-68 -7 -159 22 -47 15 -22 28 54 28 61 0 68 15 10 22 l-30 4 28 12 c16 7 48
12 72 12 76 0 121 26 109 63 -6 21 -5 21 37 3z m675 -15 c-10 -11 -15 -25 -11
-30 8 -14 51 -14 76 -1 16 9 19 7 19 -15 0 -25 -2 -26 -32 -20 -18 4 -48 14
-67 21 -25 11 -37 11 -47 3 -9 -7 -53 -11 -118 -10 -78 2 -113 -2 -135 -13
-40 -21 -61 -21 -40 -1 22 23 149 55 236 60 42 2 81 9 87 15 5 5 19 10 30 10
18 0 18 -1 2 -19z m74 10 c0 -10 -30 -24 -37 -17 -3 3 -2 9 2 15 8 13 35 15
35 2z m-1995 -10 c3 -5 1 -12 -5 -16 -5 -3 -10 1 -10 9 0 18 6 21 15 7z m486
-68 c-9 -15 -10 -12 -11 18 0 20 3 39 8 43 11 12 14 -42 3 -61z m-521 43 c0
-8 -9 -33 -20 -57 -11 -24 -20 -62 -20 -84 -1 -32 -9 -49 -39 -82 -34 -38 -61
-54 -61 -37 0 3 18 26 40 51 41 47 49 68 28 75 -13 5 27 127 46 140 17 12 26
9 26 -6z m1459 -2 l75 -7 -28 -23 c-22 -19 -39 -24 -86 -24 -53 0 -58 2 -53
20 3 11 -1 27 -8 36 -12 15 -11 16 6 11 11 -3 53 -9 94 -13z m-840 -54 c-13
-26 -19 -58 -18 -97 1 -32 4 -48 6 -35 2 12 9 20 14 17 17 -11 9 -80 -14 -117
l-22 -37 3 122 c2 89 7 131 19 155 9 17 20 32 24 32 4 0 -1 -18 -12 -40z m723
18 c-7 -7 -12 -8 -12 -2 0 14 12 26 19 19 2 -3 -1 -11 -7 -17z m1038 4 c0 -7
-37 -25 -77 -37 -13 -3 -31 -2 -40 4 -15 9 -13 10 12 11 17 0 41 7 55 14 28
16 50 20 50 8z m-2507 -49 c-3 -21 -23 -67 -44 -102 -22 -36 -39 -72 -39 -80
0 -11 -3 -12 -12 -3 -8 8 -8 15 0 25 7 8 9 27 6 45 -5 23 0 43 20 76 21 36 59
76 73 76 1 0 -1 -17 -4 -37z m1475 -6 c-12 -4 -36 -7 -53 -5 l-30 3 34 17 c27
12 38 14 53 5 17 -11 17 -12 -4 -20z m-788 -13 c0 -13 -4 -24 -10 -24 -5 0
-10 14 -10 31 0 17 4 28 10 24 6 -3 10 -17 10 -31z m1590 26 c0 -5 -2 -10 -4
-10 -3 0 -8 5 -11 10 -3 6 -1 10 4 10 6 0 11 -4 11 -10z m122 -16 c5 -4 30 -1
54 6 25 7 48 10 51 6 13 -13 -14 -27 -63 -32 -40 -5 -59 -2 -92 15 -23 12 -42
23 -42 25 0 5 80 -13 92 -20z m-2212 -28 c0 -48 -14 -80 -43 -99 l-24 -16 25
75 c27 80 42 94 42 40z m145 24 c3 -5 1 -10 -4 -10 -6 0 -11 5 -11 10 0 6 2
10 4 10 3 0 8 -4 11 -10z m302 -70 c-7 -87 -43 -175 -91 -219 -34 -32 -33 -42
4 -29 41 14 84 68 110 139 11 33 24 59 27 59 11 0 -7 -91 -26 -128 -10 -20
-44 -64 -75 -96 -37 -38 -50 -57 -37 -53 18 4 15 -5 -21 -77 -36 -72 -41 -88
-40 -148 2 -105 30 -165 113 -241 38 -36 69 -69 69 -73 1 -10 78 -70 103 -80
9 -3 17 -12 17 -20 0 -11 -9 -10 -42 7 -92 46 -158 92 -158 110 0 26 -63 89
-90 89 -14 0 -46 24 -89 68 -51 51 -70 79 -82 117 -8 28 -19 49 -24 48 -24 -5
-32 -122 -14 -187 16 -59 114 -155 136 -133 2 3 -16 24 -42 48 -48 45 -75 86
-75 115 0 11 12 0 29 -27 15 -24 55 -68 89 -97 70 -60 82 -85 56 -113 -9 -10
-20 -19 -24 -19 -14 0 -139 121 -160 155 -31 50 -90 206 -90 237 0 36 -20 47
-22 11 -4 -56 -5 -68 -13 -86 -11 -26 -1 -106 20 -152 10 -22 19 -47 21 -55 2
-8 21 -32 43 -53 45 -41 48 -47 27 -47 -19 0 -93 94 -122 155 -26 54 -29 101
-14 186 5 30 11 81 14 114 3 33 8 70 12 83 11 38 -4 24 -31 -27 -28 -57 -65
-183 -65 -225 0 -24 -2 -27 -15 -16 -27 22 -13 164 22 215 7 11 13 28 13 38 0
20 73 152 90 162 6 3 10 15 10 27 0 11 9 31 20 45 11 14 20 32 20 39 0 7 12
24 26 37 16 15 22 27 16 31 -6 3 -14 1 -18 -5 -4 -8 -9 -7 -15 2 -8 12 -11 11
-19 -1 -8 -13 -10 -13 -10 1 0 20 61 111 78 117 18 6 25 -44 12 -96 -6 -27
-29 -72 -50 -101 -55 -73 -74 -137 -67 -229 6 -76 12 -96 25 -75 5 8 16 -5 31
-32 13 -25 27 -45 30 -45 3 0 6 56 6 124 0 107 3 127 19 145 11 12 16 29 13
41 -4 16 1 22 21 26 15 4 44 15 65 26 37 18 37 18 37 -2 0 -15 -10 -23 -45
-32 -64 -17 -78 -43 -83 -154 -5 -116 9 -163 86 -268 81 -112 108 -114 57 -4
-20 43 -25 68 -25 138 0 92 20 203 47 263 11 26 27 43 50 52 41 17 76 86 95
188 7 37 14 67 17 67 2 0 1 -36 -2 -80z m973 66 c0 -2 -18 -6 -40 -8 -22 -2
-40 0 -40 4 0 5 18 8 40 8 22 0 40 -2 40 -4z m-180 -17 l35 -1 -40 -13 c-22
-8 -55 -14 -74 -14 -34 -1 -34 -1 -15 20 12 13 26 18 39 15 11 -3 36 -6 55 -7z
m1063 -16 c-7 -2 -19 -2 -25 0 -7 3 -2 5 12 5 14 0 19 -2 13 -5z m-26 -24 c48
-22 55 -37 8 -19 -30 11 -74 40 -62 40 5 0 29 -9 54 -21z m-997 1 c-8 -5 -22
-9 -30 -9 -10 0 -8 3 5 9 27 12 43 12 25 0z m-1485 -54 c-9 -14 -14 -33 -11
-43 3 -10 2 -24 -3 -31 -6 -10 -10 -4 -15 18 -4 24 0 43 17 72 14 26 23 35 25
25 2 -9 -4 -27 -13 -41z m1587 -11 c-3 -47 1 -63 27 -110 34 -59 31 -81 -14
-105 -11 -6 -36 -31 -55 -56 -19 -24 -37 -39 -38 -34 -7 21 9 59 41 98 26 31
37 38 50 30 23 -13 21 0 -8 47 -13 22 -25 51 -25 66 0 14 -5 30 -11 36 -17 17
-2 83 19 83 14 0 16 -8 14 -55z m-1147 -65 l-26 -25 16 37 c8 21 15 50 16 65
1 24 2 22 10 -12 9 -35 7 -42 -16 -65z m1090 -80 c-12 -29 -22 10 -18 66 3 35
1 54 -7 54 -18 0 -32 -52 -27 -102 2 -27 0 -48 -4 -48 -5 0 -9 15 -9 34 0 41
-8 66 -22 66 -5 0 -8 -27 -7 -61 2 -49 -1 -63 -14 -71 -13 -7 -17 -5 -17 7 0
8 -4 15 -10 15 -5 0 -10 -6 -10 -14 0 -8 -3 -21 -6 -30 -9 -23 18 -20 76 9 54
27 75 19 34 -14 -25 -19 -46 -25 -83 -23 -8 0 -21 -6 -28 -14 -13 -12 -12 -15
1 -20 9 -3 16 -15 16 -25 0 -10 5 -19 12 -19 21 0 57 -41 51 -58 -5 -11 -2
-14 9 -9 21 8 30 -3 17 -20 -9 -10 -8 -13 4 -13 8 0 17 5 19 11 2 7 16 4 38
-10 58 -35 102 -23 67 18 -8 9 -20 31 -27 49 -11 28 -10 38 5 71 9 21 28 44
40 49 39 18 56 53 46 90 -10 34 -1 42 19 17 7 -8 20 -15 29 -16 10 0 11 -2 4
-6 -7 -2 -13 -9 -13 -15 0 -6 -13 -26 -30 -45 -16 -18 -30 -42 -30 -53 0 -13
-5 -18 -15 -14 -22 9 -19 -32 10 -123 28 -87 40 -111 51 -100 4 4 13 -5 20
-20 11 -26 12 -26 20 -9 5 13 0 42 -14 80 -11 33 -19 62 -18 64 2 1 14 -14 26
-35 22 -36 45 -167 28 -157 -12 8 -10 -10 7 -50 20 -47 13 -46 -15 2 -27 43
-39 28 -15 -18 9 -18 15 -34 13 -36 -2 -2 -12 12 -23 31 -31 58 -34 39 -7 -40
20 -60 28 -72 39 -64 7 6 13 8 13 3 0 -4 6 1 14 11 12 17 14 15 20 -21 4 -21
15 -50 23 -64 l16 -25 -21 19 c-40 35 -23 1 33 -67 30 -36 55 -71 55 -76 0
-18 58 -41 103 -41 32 0 47 -5 51 -16 20 -51 -7 -56 -116 -20 -105 34 -159 59
-195 90 -31 26 -35 37 -48 124 -4 25 -11 40 -17 36 -14 -9 -2 -107 18 -145 20
-40 93 -85 152 -94 25 -4 60 -16 76 -28 40 -29 136 -36 156 -12 12 15 10 23
-14 68 -16 27 -44 63 -62 80 -27 23 -32 32 -24 47 12 23 13 33 2 26 -5 -3 -22
8 -37 24 -29 30 -63 42 -49 18 6 -10 4 -10 -7 -1 -7 7 -16 13 -21 13 -13 0 4
-32 49 -96 45 -64 55 -98 27 -87 -13 5 -13 7 -2 14 10 6 2 20 -33 56 -67 70
-85 101 -98 173 -7 36 -19 79 -26 97 -10 24 2 15 58 -45 70 -75 127 -132 215
-215 55 -52 94 -132 90 -183 -2 -27 -8 -40 -20 -42 -14 -3 -15 2 -6 37 11 44
4 96 -12 86 -6 -3 -10 -23 -10 -43 0 -42 -32 -102 -55 -102 -8 0 -54 18 -102
40 -47 22 -122 52 -166 67 -70 24 -82 32 -109 72 -36 51 -49 128 -28 166 12
23 8 28 -72 107 -93 91 -106 119 -92 211 5 31 4 39 -5 31 -12 -11 -17 -101 -7
-154 l6 -35 -15 30 c-8 17 -14 51 -15 78 0 26 -4 47 -8 47 -53 0 -37 -160 21
-209 15 -13 38 -32 50 -42 37 -31 13 -21 -28 11 -52 41 -59 27 -10 -19 l40
-37 -5 -89 c-5 -86 -6 -88 -17 -56 -7 19 -13 58 -13 86 0 59 -3 62 -76 93
-115 48 -184 83 -192 99 -5 9 -21 17 -34 19 -25 2 -25 2 -21 -79 5 -99 -8 -85
-26 28 -9 51 -10 80 -3 83 5 1 8 12 5 22 -10 38 25 21 62 -30 34 -47 55 -62
55 -41 0 5 -18 31 -40 57 -22 27 -40 52 -40 56 0 5 -18 24 -40 44 -22 20 -40
42 -40 49 0 7 -7 18 -15 25 -14 12 -11 19 27 57 36 37 118 92 118 80 0 -10
-40 -47 -75 -69 -47 -29 -74 -58 -55 -58 6 0 20 -10 30 -22 16 -20 20 -21 43
-9 15 8 35 35 49 67 20 46 28 55 56 60 38 7 48 20 31 40 -9 11 -8 18 6 34 10
11 24 20 32 20 16 0 17 17 1 22 -8 3 -1 23 20 61 18 31 32 63 32 72 0 8 13 21
28 29 15 8 34 25 41 39 7 14 23 29 35 35 20 9 21 6 29 -72 4 -44 5 -87 2 -96z
m103 117 c6 -39 6 -55 -1 -48 -10 10 -24 120 -14 111 3 -3 10 -32 15 -63z
m-1526 -39 c-11 -18 -38 -52 -59 -75 -21 -23 -51 -66 -67 -95 l-28 -53 6 58
c8 72 20 96 87 170 46 52 54 57 67 44 13 -14 12 -19 -6 -49z m53 17 c-8 -22
-14 -52 -15 -66 0 -15 -7 -29 -15 -33 -8 -3 -15 -10 -15 -15 0 -6 8 -7 17 -4
17 7 17 5 2 -17 -8 -14 -28 -46 -45 -72 -39 -65 -49 -60 -19 8 38 85 30 99
-11 19 -37 -71 -94 -146 -94 -123 0 7 7 22 15 32 8 11 15 31 15 45 0 14 17 51
37 81 19 30 33 47 30 38 -4 -10 -3 -18 1 -18 4 0 18 26 31 57 23 51 69 118 77
111 2 -2 -3 -22 -11 -43z m1161 20 c-36 -19 -42 -19 -26 0 7 8 22 15 34 15 18
0 17 -2 -8 -15z m580 -76 c21 -81 19 -171 -6 -200 l-19 -24 10 39 c11 40 7
165 -7 221 -12 52 7 20 22 -36z m-662 36 c7 -19 -27 -41 -75 -49 -34 -6 -38
-4 -47 23 -6 16 -8 32 -5 35 4 3 32 6 64 6 41 0 58 -4 63 -15z m51 3 c26 -12
36 -31 10 -22 -8 4 -15 2 -15 -4 0 -5 -6 -12 -14 -15 -9 -4 -13 3 -12 24 1 16
2 29 3 29 1 0 14 -5 28 -12z m-1344 -67 c-6 -11 -18 -44 -25 -73 -14 -50 -15
-51 -15 -17 -1 47 32 129 46 115 3 -2 0 -13 -6 -25z m1299 -9 c0 -2 -15 -20
-32 -38 -28 -29 -40 -34 -80 -34 l-47 0 20 35 c15 25 28 35 47 36 15 0 36 4
47 8 20 8 45 4 45 -7z m1181 -47 c19 -3 48 -9 64 -14 l30 -9 -39 -1 c-58 -1
-112 18 -143 52 l-28 30 41 -27 c22 -15 56 -29 75 -31z m-1348 0 c-9 -19 -20
-35 -25 -35 -4 0 -8 -4 -8 -8 0 -5 14 -6 31 -4 22 3 30 1 25 -7 -4 -6 -12 -11
-18 -11 -6 0 -20 -8 -31 -17 -19 -17 -19 -17 -13 5 4 12 3 22 -2 22 -15 0 -2
42 21 68 30 33 39 27 20 -13z m777 7 c0 -15 -2 -15 -10 -2 -13 20 -13 33 0 25
6 -3 10 -14 10 -23z m-318 -4 c-7 -7 -12 -8 -12 -2 0 14 12 26 19 19 2 -3 -1
-11 -7 -17z m-592 -30 c0 -9 -4 -20 -10 -23 -6 -4 -10 9 -10 32 0 28 3 34 10
23 5 -8 10 -23 10 -32z m-540 20 c0 -2 -7 -25 -15 -52 -8 -27 -16 -72 -17
-100 l-1 -51 -5 45 c-4 50 16 160 29 160 5 0 9 -1 9 -2z m1539 -132 c-11 -32
-17 -61 -15 -65 3 -5 -3 -16 -13 -25 -17 -15 -19 -15 -36 4 -17 18 -17 21 -1
42 9 13 28 38 41 57 14 19 25 48 26 65 l1 31 8 -26 c5 -18 1 -45 -11 -83z
m-1224 62 c-4 -14 -24 -38 -46 -54 -45 -33 -119 -136 -119 -166 0 -10 -4 -16
-10 -13 -5 3 -10 16 -10 28 0 28 53 141 87 185 20 27 27 31 39 21 12 -10 19
-8 36 9 26 25 31 23 23 -10z m1804 16 c9 -8 -75 -3 -88 5 -8 5 5 7 35 4 27 -3
51 -7 53 -9z m-2622 -36 c-3 -8 -6 -5 -6 6 -1 11 2 17 5 13 3 -3 4 -12 1 -19z
m1084 -102 c-43 -44 -42 -78 1 -39 26 24 22 5 -13 -56 -28 -48 -32 -52 -43
-35 -20 30 -26 53 -15 59 13 9 59 101 59 120 0 9 8 27 18 40 l17 23 3 -40 c3
-34 -2 -46 -27 -72z m137 81 c-18 -19 -47 -51 -64 -72 l-31 -39 7 56 c8 73 21
88 77 88 l44 0 -33 -33z m352 19 c0 -16 -19 -25 -37 -19 -19 7 -16 21 5 26 29
8 32 7 32 -7z m304 -32 l-28 -36 24 -18 c23 -17 23 -18 3 -28 -17 -9 -24 -7
-43 13 -13 14 -29 25 -36 25 -19 0 -28 20 -15 33 11 11 94 44 114 46 4 1 -4
-15 -19 -35z m-1693 -22 c-12 -15 -29 -39 -39 -54 -24 -39 -36 -35 -27 8 9 51
25 73 55 76 35 5 37 1 11 -30z m800 6 c-25 -40 -46 -47 -49 -15 -1 17 6 26 26
34 43 17 45 15 23 -19z m51 -30 c-11 -24 -26 -52 -35 -62 -13 -18 -16 -18 -30
-4 -14 14 -11 20 31 65 26 27 49 48 50 47 2 -1 -5 -22 -16 -46z m730 37 c0 -5
-5 -11 -11 -13 -6 -2 -11 4 -11 13 0 9 5 15 11 13 6 -2 11 -8 11 -13z m-888
-52 c-4 -16 -15 -37 -26 -48 -11 -11 -19 -15 -17 -10 24 64 34 85 41 85 5 0 5
-12 2 -27z m-124 -49 c-32 -54 -32 -55 -11 -61 12 -3 21 -6 21 -7 0 0 -8 -24
-18 -53 l-17 -52 -33 39 -33 39 22 43 c30 61 68 108 85 108 12 0 8 -13 -16
-56z m-250 -39 c0 -5 -5 -3 -10 5 -5 8 -10 20 -10 25 0 6 5 3 10 -5 5 -8 10
-19 10 -25z m1558 3 c64 -75 121 -168 104 -168 -5 0 -15 15 -24 33 -9 19 -41
61 -72 94 -30 33 -53 63 -49 67 10 10 13 8 41 -26z m-935 2 c-3 -10 -11 -24
-18 -30 -11 -10 -12 -6 -2 19 13 34 28 43 20 11z m-320 -55 c-33 -42 -39 -39
-17 8 10 21 22 33 30 30 10 -4 6 -14 -13 -38z m179 -48 c-12 -13 -22 -28 -22
-34 0 -6 -24 -28 -52 -49 -80 -58 -94 -84 -44 -84 24 0 64 -35 53 -46 -3 -4
-27 6 -53 21 -75 44 -107 85 -66 85 26 0 142 76 171 112 13 16 26 27 29 23 3
-3 -4 -15 -16 -28z m-273 -82 c33 -49 58 -92 55 -94 -15 -16 -117 120 -130
174 -9 41 2 29 75 -80z m491 31 c0 -14 -4 -28 -10 -31 -6 -3 -10 4 -10 18 0
13 -9 32 -19 41 -11 10 -17 25 -14 33 9 22 53 -29 53 -61z m-376 51 c-2 -7
-14 -19 -27 -26 -21 -13 -21 -12 2 13 27 29 33 32 25 13z m-228 -163 c63 -31
84 -56 84 -99 l0 -30 -33 47 c-17 25 -45 54 -62 63 -43 25 -114 95 -132 130
-11 21 0 13 36 -27 31 -34 74 -68 107 -84z m190 91 c-10 -8 -23 -12 -29 -8
-11 7 12 23 33 23 12 -1 11 -4 -4 -15z m363 -39 c-10 -17 -19 -43 -19 -58 0
-16 -4 -28 -10 -28 -15 0 -12 37 6 72 12 24 13 32 4 38 -7 4 -10 13 -6 19 5 8
12 7 25 -1 18 -11 18 -12 0 -42z m-110 -29 c5 -13 6 -39 1 -58 l-8 -34 -1 42
c-1 23 -4 48 -7 57 -3 9 -3 16 0 16 4 0 10 -10 15 -23z m591 -21 l25 -29 -32
23 c-18 13 -33 31 -33 39 0 8 3 11 8 6 4 -6 18 -23 32 -39z m-1434 28 c12 -3
27 -17 33 -30 15 -34 15 -35 -16 -21 -50 22 -66 34 -59 46 8 12 12 13 42 5z
m637 -85 c26 -25 78 -49 107 -49 11 0 20 -5 20 -11 0 -11 -23 -6 -75 16 -32
14 -96 64 -82 65 4 0 18 -10 30 -21z m612 1 c3 -5 2 -10 -4 -10 -5 0 -13 5
-16 10 -3 6 -2 10 4 10 5 0 13 -4 16 -10z m-1181 -16 c14 -14 22 -34 13 -34
-2 0 -14 11 -27 25 -25 27 -12 35 14 9z m1072 -32 c-10 -9 -36 14 -36 32 0 20
1 20 20 -4 10 -14 17 -26 16 -28z m377 -35 c-4 -47 -1 -72 11 -98 16 -31 16
-32 0 -14 -26 32 -44 82 -44 124 0 53 9 75 25 61 9 -7 11 -30 8 -73z m-634 -5
c1 -31 -3 -42 -11 -40 -17 6 -22 41 -13 87 6 31 9 33 15 16 5 -11 9 -39 9 -63z
m604 -88 c8 -17 22 -36 30 -43 8 -6 13 -20 10 -30 -4 -16 13 -22 124 -50 109
-27 282 -96 270 -107 -4 -5 -92 23 -125 39 -17 8 -28 8 -42 -1 -48 -30 -131
-2 -221 75 -63 53 -87 111 -88 209 -1 85 13 90 20 7 3 -37 13 -82 22 -99z
m-134 89 l-2 -56 -23 28 c-13 16 -26 26 -30 22 -8 -8 59 -97 110 -146 22 -22
36 -44 36 -60 0 -27 -10 -23 -14 6 -2 10 -27 45 -57 79 -48 54 -99 91 -151
108 -26 8 -22 25 7 36 14 5 25 14 25 19 0 5 15 12 33 14 72 9 68 12 66 -50z
m-913 -41 c-4 -3 -11 -1 -17 5 -7 7 -6 19 3 39 l13 29 3 -34 c2 -18 1 -36 -2
-39z m704 39 c5 -9 5 -23 1 -29 -7 -11 -14 -2 -39 50 -7 16 29 -5 38 -21z
m-56 -129 c63 -61 111 -112 106 -112 -5 0 -12 4 -15 10 -3 5 -30 25 -59 45
-69 46 -186 153 -186 171 0 28 42 -3 154 -114z m-964 97 c0 -5 -4 -9 -10 -9
-5 0 -10 7 -10 16 0 8 5 12 10 9 6 -3 10 -10 10 -16z m110 11 c0 -5 -4 -10
-10 -10 -5 0 -10 5 -10 10 0 6 5 10 10 10 6 0 10 -4 10 -10z m684 -43 c5 -27
4 -37 -3 -32 -6 3 -11 22 -11 42 0 44 5 41 14 -10z m288 -1 c-2 -20 -8 -36
-13 -36 -10 0 -12 40 -3 64 10 27 20 9 16 -28z m-465 2 c-3 -8 -6 -5 -6 6 -1
11 2 17 5 13 3 -3 4 -12 1 -19z m384 -31 l23 -32 -23 20 c-13 11 -27 28 -33
39 -16 29 7 11 33 -27z m-307 17 c4 -11 0 -15 -16 -12 -12 2 -23 9 -26 16 -6
18 35 15 42 -4z m-384 -14 c0 -5 -2 -10 -4 -10 -3 0 -8 5 -11 10 -3 6 -1 10 4
10 6 0 11 -4 11 -10z m89 -44 c7 -8 24 -17 39 -21 15 -3 41 -17 57 -31 21 -18
24 -23 10 -18 -17 5 -16 2 5 -15 25 -21 24 -21 -29 1 -55 22 -131 85 -131 107
0 14 30 0 49 -23z m165 6 c38 -10 71 -23 73 -29 5 -14 -164 30 -181 47 -12 12
-17 13 108 -18z m1456 8 c6 -11 8 -20 6 -20 -3 0 -10 9 -16 20 -6 11 -8 20 -6
20 3 0 10 -9 16 -20z m-722 -105 c19 -26 32 -49 29 -51 -8 -8 -77 78 -98 121
l-20 40 28 -32 c15 -17 43 -52 61 -78z m-313 15 c46 -22 91 -37 99 -34 8 3 17
1 21 -5 3 -6 11 -11 16 -11 6 0 7 4 4 10 -13 22 14 8 51 -25 l39 -35 -59 25
c-71 30 -95 33 -75 9 18 -22 -97 36 -178 89 -35 23 -63 45 -63 50 0 5 13 -1
30 -13 16 -12 68 -39 115 -60z m142 -6 c-9 -10 -52 42 -49 59 3 15 9 12 29
-18 14 -20 23 -39 20 -41z m-389 48 c3 -10 -5 -13 -29 -10 -18 2 -34 9 -37 16
-3 10 5 13 29 10 18 -2 34 -9 37 -16z m57 8 c3 -5 1 -10 -4 -10 -6 0 -11 5
-11 10 0 6 2 10 4 10 3 0 8 -4 11 -10z m85 -66 c0 -2 -11 2 -25 8 -14 6 -25
15 -25 20 0 5 11 1 25 -8 14 -9 25 -18 25 -20z m-23 -101 c-2 -1 -20 2 -42 7
-22 5 -58 10 -80 11 l-40 1 45 12 c40 11 49 10 82 -8 20 -12 36 -22 35 -23z
m-174 20 c-7 -2 -19 -2 -25 0 -7 3 -2 5 12 5 14 0 19 -2 13 -5z m297 -8 c23
-8 62 -15 87 -15 31 0 55 -8 81 -25 34 -23 35 -25 12 -25 -36 1 -186 46 -212
64 -28 20 -22 20 32 1z m1075 -25 c-3 -5 -12 -10 -18 -10 -7 0 -6 4 3 10 19
12 23 12 15 0z m31 -37 c-5 -11 -10 -13 -17 -6 -7 7 -7 17 3 32 10 18 14 19
16 6 2 -9 1 -23 -2 -32z m-1432 28 c21 -8 50 -81 37 -94 -5 -5 -11 7 -15 25
-3 18 -19 43 -34 55 -27 22 -23 28 12 14z m167 -14 c-1 -4 -1 -17 -1 -29 0
-19 -2 -20 -10 -8 -13 20 -13 53 1 48 6 -2 10 -7 10 -11z m446 -31 c-4 -9 -26
-17 -61 -21 -70 -9 -93 -1 -41 14 22 6 51 18 65 26 27 15 46 6 37 -19z m763 4
c0 -17 -7 -20 -40 -20 -22 0 -40 5 -40 10 0 6 8 10 18 10 14 0 15 2 2 10 -11
7 -5 10 23 10 30 0 37 -4 37 -20z m-1137 -50 c-5 -5 -42 41 -43 53 0 4 11 -5
24 -20 13 -15 22 -30 19 -33z"/>
<path d="M883 2415 c-8 -13 -14 -14 -38 -5 -16 6 -53 10 -83 8 -43 -2 -58 -8
-69 -24 -38 -58 -63 -354 -30 -354 7 0 21 -24 31 -52 10 -29 29 -66 41 -83 23
-29 25 -34 25 -55 0 -5 7 -10 15 -10 9 0 18 -12 21 -29 4 -18 12 -28 22 -27
12 1 20 -12 26 -39 12 -49 15 -53 26 -35 19 29 6 174 -12 150 -2 -3 -9 -16
-15 -30 -11 -24 -12 -24 -12 13 -1 37 -23 53 -34 25 -3 -7 -6 -2 -6 10 -1 14
-8 26 -20 29 -10 2 -25 19 -34 36 -56 112 -59 122 -52 167 9 65 16 85 24 71 5
-7 19 24 35 71 35 107 55 120 121 76 25 -17 58 -45 73 -63 23 -29 29 -32 44
-21 10 7 25 32 33 56 18 50 18 50 6 50 -4 0 -14 -20 -21 -45 -7 -25 -16 -45
-20 -45 -10 0 -6 44 8 88 6 19 7 32 1 32 -5 0 -9 -8 -9 -18 0 -10 -6 -26 -13
-36 -12 -16 -16 -15 -51 24 -30 34 -35 44 -25 56 6 8 9 17 6 20 -3 3 -9 -2
-14 -11z m-173 -190 c0 -8 -4 -15 -10 -15 -5 0 -7 7 -4 15 4 8 8 15 10 15 2 0
4 -7 4 -15z"/>
<path d="M915 2400 c-4 -12 -5 -24 -2 -27 3 -2 8 5 12 17 4 12 5 24 2 27 -3 2
-8 -5 -12 -17z"/>
<path d="M946 2374 c-9 -23 -7 -36 3 -30 12 8 21 46 11 46 -4 0 -11 -7 -14
-16z"/>
<path d="M1150 2341 c0 -5 5 -13 10 -16 6 -3 10 -2 10 4 0 5 -4 13 -10 16 -5
3 -10 2 -10 -4z"/>
<path d="M890 2257 c25 -25 47 -40 49 -35 4 11 -39 50 -74 69 -11 6 0 -9 25
-34z"/>
<path d="M870 2235 c13 -14 26 -23 28 -20 7 7 -29 45 -41 45 -6 0 0 -11 13
-25z"/>
<path d="M845 2220 c3 -5 11 -10 16 -10 6 0 7 5 4 10 -3 6 -11 10 -16 10 -6 0
-7 -4 -4 -10z"/>
<path d="M1586 1091 c-38 -42 -57 -147 -36 -196 7 -15 9 -9 9 26 1 55 26 142
46 163 8 8 15 17 15 20 0 12 -18 5 -34 -13z"/>
<path d="M2416 909 c-14 -44 -26 -86 -26 -94 0 -24 20 -27 28 -4 7 18 10 11
16 -35 13 -118 46 -126 46 -12 0 41 7 93 15 116 22 63 20 89 -11 100 -14 6
-29 10 -34 10 -4 0 -20 -36 -34 -81z"/>
<path d="M2347 930 c-31 -36 -58 -55 -42 -30 3 6 2 10 -4 10 -5 0 -12 -13 -16
-30 -10 -46 26 -113 105 -194 38 -40 70 -78 70 -85 0 -7 5 -9 10 -6 22 14 7
43 -50 100 -58 57 -60 61 -60 111 0 36 8 67 28 108 26 49 27 56 11 56 -9 0
-33 -18 -52 -40z m-17 -91 c0 -11 5 -30 11 -41 8 -15 8 -19 0 -14 -16 10 -41
62 -34 70 13 12 23 6 23 -15z"/>
<path d="M2705 780 c-4 -27 -4 -64 -1 -82 5 -26 0 -19 -23 27 -26 54 -29 57
-30 30 -2 -56 84 -203 106 -182 3 4 12 2 20 -4 21 -18 16 3 -14 63 -20 39 -28
72 -31 126 -2 39 -8 72 -12 72 -5 0 -11 -22 -15 -50z"/>
<path d="M2845 487 c-8 -31 23 -103 56 -134 25 -23 99 -58 99 -47 0 3 -24 32
-54 64 -34 37 -57 72 -63 96 -10 45 -30 55 -38 21z"/>
<path d="M2141 3917 c17 -24 32 -54 34 -68 2 -13 9 -46 15 -74 12 -56 4 -156
-14 -168 -6 -5 -1 -7 14 -5 71 8 64 145 -16 287 -15 27 -36 53 -46 60 -11 7
-7 -4 13 -32z"/>
<path d="M3223 3538 c-12 -27 -72 -54 -98 -44 -8 3 -15 1 -15 -4 0 -6 18 -10
39 -10 47 0 95 35 90 65 -4 16 -6 15 -16 -7z"/>
<path d="M1731 3536 c-10 -12 -8 -13 9 -9 25 7 37 23 17 23 -8 0 -20 -6 -26
-14z"/>
<path d="M1845 3541 c-6 -5 -32 -17 -60 -25 l-50 -16 42 5 c47 6 93 24 93 37
0 11 -14 10 -25 -1z"/>
<path d="M3247 3519 c-10 -18 -36 -38 -64 -51 -27 -12 -42 -23 -35 -26 13 -4
86 31 106 51 17 17 27 45 18 51 -4 2 -15 -9 -25 -25z"/>
<path d="M1842 3499 c-35 -11 -62 -22 -60 -24 2 -2 26 3 53 12 28 8 97 19 155
23 l105 7 -95 1 c-70 1 -112 -4 -158 -19z"/>
<path d="M2080 3470 c-41 -23 -27 -26 22 -6 33 14 81 13 146 -4 18 -5 30 -5
27 0 -7 11 -88 30 -127 30 -18 -1 -49 -9 -68 -20z"/>
<path d="M2140 3430 c-10 -7 5 -10 50 -9 45 0 59 3 45 9 -27 12 -77 12 -95 0z"/>
<path d="M2365 3421 c11 -4 61 -11 110 -14 50 -3 78 -1 63 3 -38 11 -197 22
-173 11z"/>
<path d="M2243 3393 c9 -2 25 -2 35 0 9 3 1 5 -18 5 -19 0 -27 -2 -17 -5z"/>
<path d="M1978 3363 c6 -2 18 -2 25 0 6 3 1 5 -13 5 -14 0 -19 -2 -12 -5z"/>
<path d="M2570 3366 c0 -2 24 -12 53 -22 45 -15 49 -18 27 -24 -23 -5 -23 -6
14 -24 21 -10 40 -15 43 -13 2 3 -6 9 -19 13 -22 7 -22 7 -3 14 17 7 14 11
-25 28 -53 24 -90 35 -90 28z"/>
<path d="M2280 3356 c0 -2 9 -6 20 -9 11 -3 20 -1 20 4 0 5 -9 9 -20 9 -11 0
-20 -2 -20 -4z"/>
<path d="M2018 3313 c18 -2 45 -2 60 0 15 2 0 4 -33 4 -33 0 -45 -2 -27 -4z"/>
<path d="M2360 3310 c0 -5 4 -10 9 -10 6 0 13 5 16 10 3 6 -1 10 -9 10 -9 0
-16 -4 -16 -10z"/>
<path d="M1981 3276 c2 -2 51 -6 109 -9 59 -3 94 -2 80 3 -24 8 -198 14 -189
6z"/>
<path d="M2410 3276 c0 -2 7 -6 15 -10 8 -3 15 -1 15 4 0 6 -7 10 -15 10 -8 0
-15 -2 -15 -4z"/>
<path d="M2775 3256 c74 -37 185 -84 185 -80 0 7 -159 80 -190 88 -21 5 -20 4
5 -8z"/>
<path d="M1920 3218 c3 -3 64 -17 135 -32 72 -15 164 -35 205 -45 73 -19 74
-19 30 -20 -25 0 -88 8 -140 19 -52 11 -133 21 -180 24 l-85 5 65 -10 c36 -5
119 -20 185 -32 129 -23 218 -29 208 -13 -6 9 -1 8 46 -12 9 -3 12 0 9 8 -5
17 -20 21 -218 66 -147 33 -271 53 -260 42z"/>
<path d="M2475 3180 c-80 -5 -86 -6 -52 -14 22 -5 72 -6 112 -2 55 5 83 3 109
-8 20 -8 36 -11 36 -7 0 10 -81 42 -100 39 -8 -1 -55 -4 -105 -8z"/>
<path d="M1886 3110 c5 -5 39 -12 74 -15 l65 -5 -65 15 c-80 17 -87 18 -74 5z"/>
<path d="M2320 3081 c8 -4 38 -11 65 -14 60 -7 30 7 -35 17 -27 3 -39 2 -30
-3z"/>
<path d="M2695 3080 c3 -5 11 -10 16 -10 6 0 7 5 4 10 -3 6 -11 10 -16 10 -6
0 -7 -4 -4 -10z"/>
<path d="M1900 3070 c0 -5 19 -10 43 -9 36 1 38 2 17 9 -36 12 -60 12 -60 0z"/>
<path d="M2360 3045 c118 -15 152 -17 100 -5 -19 5 -73 11 -120 14 l-85 5 105
-14z"/>
<path d="M1691 3041 c-8 -5 12 -10 55 -13 74 -5 108 2 59 13 -45 10 -98 10
-114 0z"/>
<path d="M2740 3017 c25 -12 47 -21 50 -19 11 8 -44 42 -68 42 -23 0 -20 -3
18 -23z"/>
<path d="M1640 2992 c58 -21 107 -37 110 -35 8 7 -23 22 -85 42 -112 37 -130
31 -25 -7z"/>
<path d="M2329 3019 c-9 -6 4 -9 41 -9 30 0 73 -2 95 -5 36 -4 37 -4 10 4 -49
14 -130 20 -146 10z"/>
<path d="M2130 2957 c17 -18 80 -55 80 -47 0 5 -19 19 -42 31 -24 12 -41 19
-38 16z"/>
<path d="M2105 2931 c-3 -6 17 -22 44 -36 54 -27 61 -29 61 -17 0 13 -98 63
-105 53z"/>
<path d="M2075 2900 c3 -6 21 -17 38 -26 l32 -15 -30 25 c-30 26 -51 34 -40
16z"/>
<path d="M2020 2873 c19 -8 43 -22 53 -30 17 -16 23 -8 9 14 -9 14 -57 33 -80
32 -9 0 -1 -7 18 -16z"/>
<path d="M2245 2871 c11 -5 36 -11 55 -15 l35 -6 -30 15 c-16 8 -41 14 -55 14
-23 0 -23 -1 -5 -8z"/>
<path d="M1980 2866 c0 -8 61 -38 66 -33 3 2 -1 9 -8 14 -16 13 -58 26 -58 19z"/>
<path d="M1964 2825 c11 -8 25 -15 30 -15 6 0 2 7 -8 15 -11 8 -25 15 -30 15
-6 0 -2 -7 8 -15z"/>
<path d="M1935 2800 c3 -5 11 -10 16 -10 6 0 7 5 4 10 -3 6 -11 10 -16 10 -6
0 -7 -4 -4 -10z"/>
<path d="M1880 2780 c0 -5 5 -10 11 -10 5 0 7 5 4 10 -3 6 -8 10 -11 10 -2 0
-4 -4 -4 -10z"/>
<path d="M1420 2751 c0 -9 70 -19 89 -13 28 9 6 22 -39 22 -27 0 -50 -4 -50
-9z"/>
<path d="M1915 2685 c-31 -8 -40 -13 -25 -14 16 -1 21 -4 14 -11 -6 -6 -21 -6
-43 0 -25 7 -37 6 -47 -4 -7 -8 -10 -16 -7 -20 4 -3 -4 -6 -17 -6 -39 0 -9
-18 43 -25 30 -5 47 -4 47 3 0 6 23 24 50 41 28 17 50 35 50 41 0 12 1 12 -65
-5z"/>
<path d="M1401 2686 c2 -2 56 -7 119 -10 80 -5 110 -4 100 3 -13 10 -229 16
-219 7z"/>
<path d="M1401 2624 c-43 -18 -36 -28 9 -13 22 8 84 10 184 7 l151 -5 -95 13
c-128 17 -208 16 -249 -2z"/>
<path d="M1894 2540 c12 -21 34 -48 48 -59 34 -27 128 -74 135 -68 3 3 -15 16
-38 28 -77 39 -114 68 -133 104 -11 19 -23 35 -27 35 -4 0 2 -18 15 -40z"/>
<path d="M1525 2461 c37 -40 119 -102 173 -130 45 -24 20 -1 -45 39 -37 24
-89 63 -117 88 l-51 46 40 -43z"/>
<path d="M1430 2473 c0 -12 122 -130 168 -162 60 -42 43 -15 -26 39 -37 30
-84 72 -104 94 -21 22 -38 35 -38 29z"/>
<path d="M2125 2430 c-3 -5 -2 -10 4 -10 5 0 13 5 16 10 3 6 2 10 -4 10 -5 0
-13 -4 -16 -10z"/>
<path d="M2577 2423 c-3 -5 29 -9 70 -11 48 -1 72 1 68 8 -7 12 -131 14 -138
3z"/>
<path d="M2902 2389 c13 -17 28 -38 33 -47 12 -20 65 -74 65 -66 0 7 -112 144
-118 144 -2 0 7 -14 20 -31z"/>
<path d="M2580 2390 c0 -5 21 -10 48 -10 34 0 43 3 32 10 -20 13 -80 13 -80 0z"/>
<path d="M1472 2343 c26 -26 51 -44 55 -39 8 8 -74 85 -92 86 -5 0 11 -21 37
-47z"/>
<path d="M2545 2360 c-3 -6 1 -7 9 -4 18 7 21 14 7 14 -6 0 -13 -4 -16 -10z"/>
<path d="M2880 2355 c32 -42 40 -63 27 -68 -7 -3 -4 -6 6 -6 9 -1 17 1 17 2 0
13 -33 67 -48 78 -16 13 -16 12 -2 -6z"/>
<path d="M1933 2343 c23 -26 122 -76 210 -107 63 -21 67 -24 41 -30 -23 -6
-293 -24 -373 -26 -20 0 -22 -3 -13 -12 9 -9 46 -9 165 0 170 13 250 27 267
47 9 10 -3 18 -57 35 -37 13 -106 41 -153 64 -110 53 -108 52 -87 29z"/>
<path d="M3038 2353 c6 -2 18 -2 25 0 6 3 1 5 -13 5 -14 0 -19 -2 -12 -5z"/>
<path d="M2851 2333 c7 -12 15 -20 18 -17 3 2 -3 12 -13 22 -17 16 -18 16 -5
-5z"/>
<path d="M3015 2330 c19 -8 73 -14 64 -6 -2 2 -22 6 -44 9 -28 5 -34 4 -20 -3z"/>
<path d="M3130 2326 c0 -2 8 -10 18 -17 15 -13 16 -12 3 4 -13 16 -21 21 -21
13z"/>
<path d="M3030 2306 c0 -9 40 -13 46 -5 3 5 -6 9 -20 9 -14 0 -26 -2 -26 -4z"/>
<path d="M1940 2288 c0 -12 96 -56 141 -64 26 -5 31 -4 23 5 -16 17 -164 71
-164 59z"/>
<path d="M3150 2265 c19 -19 36 -35 39 -35 3 0 -10 16 -29 35 -19 19 -36 35
-39 35 -3 0 10 -16 29 -35z"/>
<path d="M2872 2274 c-7 -8 -8 -14 -3 -14 10 0 25 19 20 25 -2 1 -10 -3 -17
-11z"/>
<path d="M1865 2261 c-3 -6 3 -15 14 -21 24 -12 42 7 20 21 -18 11 -26 11 -34
0z"/>
<path d="M3068 2263 c6 -2 18 -2 25 0 6 3 1 5 -13 5 -14 0 -19 -2 -12 -5z"/>
<path d="M3085 2230 c3 -5 13 -10 21 -10 8 0 12 5 9 10 -3 6 -13 10 -21 10 -8
0 -12 -4 -9 -10z"/>
<path d="M2866 2193 c-8 -16 -22 -35 -30 -42 -9 -8 -16 -18 -16 -24 0 -5 9 -2
21 9 24 22 53 73 45 81 -2 3 -11 -8 -20 -24z"/>
<path d="M2920 2179 c-14 -22 -36 -47 -50 -54 -16 -9 -19 -14 -9 -15 17 0 60
42 79 78 20 40 5 33 -20 -9z"/>
<path d="M3017 2206 c-3 -8 -25 -27 -47 -41 -23 -15 -40 -29 -37 -32 10 -9 87
40 93 60 7 22 -1 34 -9 13z"/>
<path d="M3032 2163 c-23 -24 -38 -43 -32 -43 15 0 83 65 79 76 -2 5 -23 -10
-47 -33z"/>
<path d="M3310 2157 c0 -2 14 -16 32 -33 l32 -29 -25 32 c-20 27 -39 41 -39
30z"/>
<path d="M1273 2138 c-25 -33 -23 -39 6 -17 17 12 31 24 31 26 0 9 -29 1 -37
-9z"/>
<path d="M1726 2141 c14 -13 179 -51 216 -50 l33 1 -30 8 c-55 16 -204 50
-217 50 -7 0 -8 -3 -2 -9z"/>
<path d="M3292 2130 c7 -11 19 -22 28 -25 8 -4 4 5 -9 19 -29 31 -36 33 -19 6z"/>
<path d="M3260 2133 c0 -6 8 -17 18 -24 16 -13 16 -13 2 6 -8 11 -16 22 -17
24 -2 2 -3 0 -3 -6z"/>
<path d="M1800 2072 c0 -12 70 -32 111 -31 31 1 29 2 -16 13 -27 7 -60 16 -72
20 -13 4 -23 3 -23 -2z"/>
<path d="M2580 2047 c0 -2 15 -14 33 -27 20 -15 27 -17 18 -6 -13 16 -51 41
-51 33z"/>
<path d="M2960 2030 c8 -5 29 -10 45 -10 17 0 37 -4 45 -9 10 -7 1 -13 -35
-23 -53 -13 -63 -14 -110 -4 l-30 6 28 -12 c41 -18 33 -31 -15 -23 -31 4 -39
3 -28 -4 8 -6 23 -11 33 -11 9 0 17 -5 17 -10 0 -6 -16 -8 -42 -4 -68 11 -39
-4 45 -22 88 -20 121 -12 137 32 9 21 15 25 38 20 53 -12 98 -9 125 9 15 9 25
21 22 25 -9 14 -95 33 -125 27 -16 -4 -40 -3 -53 2 -37 14 -114 23 -97 11z"/>
<path d="M1840 2001 c26 -16 80 -17 80 -3 0 5 -21 9 -47 10 -32 1 -43 -1 -33
-7z"/>
<path d="M2940 2000 c14 -4 34 -8 45 -8 16 0 15 2 -5 8 -14 4 -34 8 -45 8 -16
0 -15 -2 5 -8z"/>
<path d="M3345 2000 l-40 -7 43 -2 c23 0 42 4 42 9 0 6 -1 9 -2 9 -2 -1 -21
-5 -43 -9z"/>
<path d="M2630 1979 c0 -14 49 -69 54 -61 3 5 -8 22 -24 37 -17 16 -30 27 -30
24z"/>
<path d="M3310 1970 c-13 -8 -12 -10 3 -10 9 0 17 5 17 10 0 12 -1 12 -20 0z"/>
<path d="M1900 1940 c8 -5 24 -10 35 -10 17 0 17 2 5 10 -8 5 -24 10 -35 10
-17 0 -17 -2 -5 -10z"/>
<path d="M2610 1933 c0 -6 -3 -20 -6 -30 -7 -17 -6 -17 12 -1 14 14 16 21 6
30 -8 8 -12 9 -12 1z"/>
<path d="M2052 1916 c23 -14 198 -66 221 -66 5 0 5 5 2 10 -3 6 -14 10 -24 10
-16 0 -125 29 -206 55 -11 4 -8 -1 7 -9z"/>
<path d="M1850 1916 c0 -14 106 -212 139 -260 16 -22 44 -54 62 -71 32 -29 32
-29 -4 12 -46 53 -75 99 -143 227 -29 55 -54 97 -54 92z"/>
<path d="M1810 1894 c0 -5 7 -18 15 -28 8 -11 15 -16 15 -10 0 5 -7 18 -15 28
-8 11 -15 16 -15 10z"/>
<path d="M3170 1890 c8 -5 20 -10 25 -10 6 0 3 5 -5 10 -8 5 -19 10 -25 10 -5
0 -3 -5 5 -10z"/>
<path d="M2570 1882 c0 -7 -28 -12 -72 -15 -72 -3 -72 -3 17 -5 50 -1 86 2 80
6 -5 4 -13 11 -17 16 -5 5 -8 4 -8 -2z"/>
<path d="M2065 1862 c6 -5 30 -16 55 -26 25 -9 55 -30 68 -46 l23 -29 -30 10
c-17 6 -36 9 -43 7 -7 -3 11 -13 40 -23 61 -22 113 -69 87 -78 -10 -4 -31 7
-58 30 -32 29 -36 31 -17 9 14 -16 39 -42 55 -57 28 -25 29 -28 11 -35 -14 -6
-27 2 -53 29 -18 20 -33 33 -33 29 0 -11 81 -92 92 -92 5 0 7 4 4 8 -2 4 -1
14 4 22 7 12 11 12 27 0 10 -8 7 -2 -6 13 l-24 27 36 0 c20 0 37 5 37 10 0 6
-10 10 -23 10 -16 0 -41 20 -80 64 -31 36 -57 67 -57 70 0 3 16 -2 35 -10 40
-16 55 -18 55 -4 0 5 -35 20 -77 33 -103 32 -140 41 -128 29z"/>
<path d="M1840 1835 c0 -13 86 -146 126 -193 60 -73 56 -57 -7 25 -28 37 -64
91 -81 120 -27 48 -38 62 -38 48z"/>
<path d="M2415 1830 c-20 -5 3 -8 70 -9 68 0 95 2 85 9 -17 11 -111 11 -155 0z"/>
<path d="M2423 1781 c-24 -4 -46 -11 -50 -16 -5 -4 7 -5 26 -1 18 3 57 6 85 6
37 0 47 3 36 10 -17 11 -35 11 -97 1z"/>
<path d="M1182 1708 c-3 -51 -16 -82 -49 -112 -33 -31 -17 -35 20 -6 28 23 41
67 34 121 l-4 34 -1 -37z"/>
<path d="M2340 1720 c14 -4 43 -8 65 -8 l40 0 -40 9 c-22 4 -51 8 -65 7 l-25
0 25 -8z"/>
<path d="M2190 1595 c13 -14 26 -25 28 -25 3 0 -5 11 -18 25 -13 14 -26 25
-28 25 -3 0 5 -11 18 -25z"/>
<path d="M2026 1502 c3 -9 -11 -39 -30 -67 -34 -47 -36 -48 -36 -22 0 15 -5
27 -10 27 -21 0 -33 -57 -34 -156 -1 -74 -5 -106 -16 -119 -14 -17 -14 -17 7
-7 32 17 53 52 53 87 0 20 16 51 49 95 49 65 55 86 21 75 -17 -5 -17 -3 2 35
19 38 19 70 -1 70 -5 0 -7 -8 -5 -18z"/>
<path d="M2980 1442 c0 -4 12 -18 25 -31 14 -13 25 -32 25 -43 0 -10 11 -36
25 -56 14 -20 31 -63 37 -94 13 -64 28 -76 29 -25 0 27 2 29 9 12 8 -18 9 -17
9 8 1 15 6 27 11 27 6 0 10 -4 10 -8 0 -8 52 -42 65 -42 3 0 -14 19 -38 43
-25 23 -55 62 -67 87 -34 66 -71 120 -80 115 -5 -3 -20 -1 -34 5 -14 5 -26 6
-26 2z"/>
<path d="M3160 1317 c0 -8 20 -33 45 -56 24 -22 43 -41 40 -41 -2 0 9 -15 26
-32 16 -18 29 -43 29 -55 0 -29 -4 -29 -43 1 -35 27 -107 59 -107 48 1 -8 76
-61 88 -63 14 -1 52 -43 52 -57 0 -9 -12 -4 -37 15 -51 39 -113 76 -119 71
-12 -12 34 -73 84 -111 90 -69 126 -85 98 -42 -21 32 -20 42 2 23 36 -32 46
-31 19 2 -28 33 -31 58 -13 102 5 11 -4 29 -29 56 -23 27 -31 42 -23 44 8 3 0
12 -18 21 -17 9 -45 32 -63 52 -17 20 -31 29 -31 22z"/>
<path d="M3107 1063 c3 -32 1 -75 -5 -95 -12 -42 -1 -49 22 -16 19 27 20 62 4
123 -17 62 -27 56 -21 -12z"/>
<path d="M3155 1033 c11 -27 13 -67 4 -78 -5 -7 22 -42 65 -87 40 -42 82 -94
92 -117 21 -45 51 -67 40 -29 -4 13 -13 47 -20 76 -8 30 -28 73 -45 97 -18 25
-26 45 -20 47 14 5 -91 108 -110 108 -9 0 -11 -6 -6 -17z"/>
<path d="M3410 1000 c139 -127 167 -159 177 -197 l10 -41 -73 74 c-78 78 -130
112 -146 96 -6 -6 3 -17 25 -29 66 -40 169 -190 169 -249 0 -29 8 -43 50 -82
67 -63 85 -67 26 -6 -39 41 -45 52 -36 68 10 18 7 62 -8 101 -4 11 -4 17 1 13
14 -14 35 14 35 46 0 26 -13 43 -79 106 -43 41 -103 88 -132 103 l-54 29 35
-32z"/>
<path d="M3340 903 c1 -4 21 -21 47 -37 38 -24 51 -42 80 -104 18 -41 36 -95
38 -119 3 -28 14 -58 30 -77 13 -17 48 -60 77 -96 l53 -65 -50 43 c-65 56
-175 179 -174 195 0 7 4 21 8 31 7 18 9 16 19 -12 12 -35 23 -43 17 -13 -5 29
-25 63 -56 96 -16 17 -35 39 -43 50 -19 27 -34 10 -16 -18 30 -48 41 -78 44
-120 2 -35 11 -55 50 -102 26 -32 56 -75 67 -96 10 -21 30 -50 43 -64 32 -35
56 -106 56 -169 l0 -50 -30 29 c-16 16 -32 26 -35 23 -3 -3 -1 -36 5 -73 6
-38 8 -82 4 -98 l-6 -30 -32 49 -31 48 -3 -52 c-2 -30 -7 -50 -13 -47 -5 4 -9
-1 -9 -9 0 -13 12 -16 53 -16 52 0 55 1 86 46 20 27 31 53 28 64 -3 11 1 24 9
31 23 19 28 75 11 126 -11 33 -13 50 -5 54 6 4 8 15 4 25 -6 15 -5 17 5 6 21
-20 29 -14 29 23 0 50 -20 84 -104 179 -67 75 -71 83 -60 105 9 17 9 32 3 50
-20 52 -59 108 -91 133 -52 38 -108 70 -108 61z m282 -528 c5 -11 -6 -3 -26
18 -20 21 -36 41 -36 44 0 11 51 -41 62 -62z m-17 -215 c14 -27 21 -59 10 -49
-8 9 -35 79 -30 79 2 0 11 -13 20 -30z"/>
<path d="M2895 880 c-3 -5 7 -35 23 -67 16 -32 33 -72 36 -90 11 -49 137 -181
179 -187 8 -1 39 -24 71 -50 41 -36 53 -52 44 -57 -9 -6 -7 -9 8 -9 12 0 27
-7 34 -15 7 -9 15 -13 18 -11 2 3 21 -3 42 -14 49 -25 97 -100 109 -171 l9
-54 1 48 c1 56 -19 100 -78 170 -44 53 -219 197 -234 194 -5 -1 -24 21 -41 49
-45 74 -83 120 -91 112 -4 -4 2 -26 14 -50 l21 -43 -30 35 c-16 19 -33 50 -36
70 -6 34 -72 150 -86 150 -4 0 -9 -4 -13 -10z m385 -420 c30 -27 52 -50 48
-50 -7 0 -124 95 -153 123 -30 30 59 -32 105 -73z"/>
<path d="M3160 867 c0 -13 15 -41 33 -63 56 -66 67 -87 67 -126 0 -31 5 -40
23 -47 29 -12 143 -129 156 -161 l10 -25 0 27 c1 27 -48 96 -108 152 -23 23
-31 38 -31 65 0 47 -48 130 -98 170 -48 37 -52 38 -52 8z"/>
<path d="M3300 530 c0 -5 22 -30 49 -55 27 -25 57 -62 66 -80 8 -19 21 -34 27
-32 14 3 57 -72 58 -100 0 -13 4 -23 9 -23 5 0 11 10 15 23 19 72 -12 140 -74
158 -26 8 -49 25 -72 56 -39 53 -78 79 -78 53z m166 -142 l19 -21 -27 18 c-29
18 -34 25 -20 25 5 0 17 -10 28 -22z"/>
<path d="M3553 292 c-2 -26 33 -70 46 -57 7 7 4 21 -9 43 -22 36 -35 41 -37
14z"/>
<path d="M1360 206 c0 -5 17 -32 38 -60 21 -28 44 -62 51 -74 7 -13 15 -21 18
-18 3 3 -6 24 -20 48 -29 49 -86 117 -87 104z"/>
<path d="M3504 181 c15 -16 15 -20 2 -23 -12 -2 -11 -7 4 -26 23 -27 44 -20
34 11 -8 26 -33 57 -47 57 -6 0 -2 -9 7 -19z"/>
<path d="M1320 149 c0 -14 71 -101 78 -95 4 5 -68 106 -75 106 -2 0 -3 -5 -3
-11z"/>
<path d="M3436 89 c4 -28 2 -55 -6 -68 -10 -20 -9 -22 7 -19 24 4 30 67 9 105
-15 28 -15 28 -10 -18z"/>
<path d="M1644 64 c54 -50 86 -70 86 -55 0 12 -111 101 -125 101 -5 -1 12 -21
39 -46z"/>
<path d="M1290 87 c0 -9 14 -31 31 -49 32 -35 30 -25 -8 31 -14 20 -23 27 -23
18z"/>
<path d="M2328 3 c6 -2 18 -2 25 0 6 3 1 5 -13 5 -14 0 -19 -2 -12 -5z"/>
</g>
</svg>
